<?xml version="1.0" standalone="no"?>
<!DOCTYPE svg PUBLIC "-//W3C//DTD SVG 1.1//EN" "http://www.w3.org/Graphics/SVG/1.1/DTD/svg11.dtd" >
<svg xmlns="http://www.w3.org/2000/svg">
<metadata>Generated by IcoMoon</metadata>
<defs>
<font id="icomoon" horiz-adv-x="1024">
<font-face units-per-em="1024" ascent="960" descent="-64" />
<missing-glyph horiz-adv-x="1024" />
<glyph unicode="&#x20;" horiz-adv-x="512" d="" />
<glyph unicode="&#xe900;" glyph-name="google-cloud-logo" d="M631.696 617.576l27.84-0.488 75.632 75.648 3.656 32.064c-60.096 53.48-139.192 86.016-225.8 86.016-156.768 0-289.056-106.656-328.216-251.136 8.248 5.768 25.92 1.44 25.92 1.44l151.192 24.864c0 0 7.784 12.856 11.712 12.096 34.56 37.832 84.288 61.632 139.496 61.632 44.84-0.088 86.104-15.928 118.568-42.136zM841.448 559.408c-17.56 64.8-53.752 122.016-102.616 165.4l-107.136-107.136c42.904-34.656 70.464-87.648 70.464-146.976v-18.904c52.128 0 94.464-42.448 94.464-94.48 0-52.128-42.432-94.464-94.464-94.464h-188.936l-18.912-19v-113.384l18.912-18.816h188.936c135.448 0 245.664 110.208 245.664 245.656-0.096 83.624-42.256 157.744-106.376 202.104zM324.112 111.56h188.832v151.2h-188.832c-13.92 0-27.080 3.080-38.88 8.448l-27.264-8.352-75.656-75.656-6.616-25.528c41.272-31.392 92.728-50.112 148.416-50.112zM324.112 602.88c-135.464 0-245.672-110.2-245.672-245.664 0-79.768 38.208-150.72 97.352-195.64l109.528 109.528c-32.832 14.88-55.68 47.808-55.68 86.112 0 52.128 42.432 94.472 94.472 94.472 38.296 0 71.224-22.944 86.112-55.68l109.536 109.536c-44.928 59.136-115.88 97.336-195.648 97.336z" />
<glyph unicode="&#xe901;" glyph-name="google-cloud-platform-logo" horiz-adv-x="4010" d="M516.402 598.96l23.001-0.403 62.499 62.499 3.007 26.491c-49.65 44.184-114.998 71.065-186.545 71.065-129.519 0-238.812-88.117-271.172-207.483 6.821 4.765 21.415 1.19 21.415 1.19l124.918 20.542c0 0 6.424 10.621 9.676 9.993 28.553 31.256 69.637 50.919 115.249 50.919 37.046-0.073 71.151-13.159 97.952-34.812zM689.701 550.902c-14.514 53.536-44.415 100.807-84.786 136.65l-88.514-88.514c35.453-28.632 58.223-72.413 58.223-121.429v-15.618c43.067 0 78.044-35.070 78.044-78.057 0-43.067-35.056-78.038-78.044-78.038h-156.088l-15.625-15.697v-93.682l15.625-15.545h156.088c111.911 0 202.956 91.058 202.956 202.956-0.079 69.088-34.891 130.325-87.879 166.974zM262.289 180.899h156.009v124.918h-156.009c-11.5 0-22.373 2.545-32.122 6.973l-22.525-6.894-62.499-62.505-5.473-21.091c34.105-25.935 76.61-41.402 122.618-41.402zM262.289 586.818c-111.918 0-202.969-91.045-202.969-202.963 0-65.903 31.567-124.522 80.424-161.634l90.496 90.49c-27.125 12.3-46.002 39.505-46.002 71.144 0 43.067 35.056 78.051 78.051 78.051 31.639 0 58.844-18.956 71.144-45.995l90.49 90.496c-37.119 48.85-95.731 80.41-161.634 80.41zM1194.299 268.058c-56.002 0-104.138 19.828-144.667 59.485-40.45 39.657-60.754 87.33-60.754 142.929 0 55.592 20.225 103.266 60.754 142.922 40.443 39.657 88.666 59.485 144.667 59.485 53.616 0 99.935-18.566 138.719-55.757l-39.022-39.022c-27.998 26.332-61.236 39.498-99.697 39.498-40.45 0-74.792-14.276-102.949-42.988-28.156-28.625-42.195-63.365-42.195-104.138 0-40.84 14.038-75.5 42.195-104.132 28.156-28.645 62.42-42.988 102.949-42.988 41.164 0 75.189 13.477 102.235 40.522 16.101 16.101 26.173 39.346 30.139 69.63h-132.294v55.295h186.148c1.983-9.835 2.935-21.415 2.935-34.581 0-54.323-15.949-97.403-47.905-129.353-36.253-37.918-83.286-56.808-141.257-56.808zM1626.867 305.342c-25.38-24.825-56.312-37.284-92.796-37.284s-67.496 12.459-92.79 37.284c-25.387 24.825-37.991 55.83-37.991 93.034s12.69 68.203 37.991 93.041c25.374 24.825 56.312 37.271 92.79 37.271 36.491 0 67.502-12.446 92.796-37.271 25.387-24.838 37.991-55.922 37.991-93.041 0-37.205-12.69-68.209-37.991-93.034zM1482.199 341.819c14.514-14.99 31.725-22.446 51.871-22.446 20.066 0 37.357 7.462 51.877 22.446 14.508 14.99 21.732 33.781 21.732 56.557 0 23.001-7.138 41.957-21.494 56.788s-31.646 22.201-52.115 22.201c-20.384 0-37.753-7.37-52.109-22.201-14.356-14.838-21.494-33.708-21.494-56.788 0-22.69 7.224-41.567 21.732-56.557zM1912.242 305.342c-25.387-24.825-56.319-37.284-92.803-37.284s-67.489 12.459-92.79 37.284c-25.387 24.825-37.991 55.83-37.991 93.034s12.69 68.203 37.991 93.041c25.301 24.825 56.312 37.271 92.79 37.271 36.491 0 67.502-12.446 92.803-37.271 25.38-24.838 37.991-55.922 37.991-93.041 0-37.205-12.697-68.209-37.991-93.034zM1767.575 341.819c14.508-14.99 31.725-22.446 51.864-22.446 20.073 0 37.363 7.462 51.877 22.446 14.514 14.99 21.732 33.781 21.732 56.557 0 23.001-7.138 41.957-21.494 56.788s-31.646 22.201-52.115 22.201c-20.377 0-37.746-7.37-52.109-22.201-14.356-14.838-21.494-33.708-21.494-56.788 0-22.69 7.224-41.567 21.738-56.557zM2099.811 150.985c-28.936 0-53.285 7.786-73.041 23.252s-33.873 33.397-42.439 53.854l49.888 20.694c5.241-12.531 13.496-23.391 24.68-32.598 11.163-9.207 24.812-13.801 40.998-13.801 21.719 0 38.778 6.583 51.078 19.749 12.379 13.166 18.48 32.115 18.48 56.788v18.797h-1.983c-16.114-19.749-39.016-29.663-68.606-29.663-33.226 0-62.34 12.69-87.403 37.991-24.99 25.301-37.528 55.922-37.528 91.845 0 36.173 12.531 67.106 37.528 92.559 24.984 25.46 54.171 38.222 87.403 38.222 14.818 0 28.236-2.776 40.212-8.401s21.487-12.531 28.394-20.707h1.983v21.263h54.33v-234.060c0-45.44-11.586-79.393-34.825-101.997-23.239-22.439-52.902-33.787-89.148-33.787zM2103.771 319.374c19.749 0 36.325 7.462 49.67 22.446 13.325 14.99 19.98 33.629 19.98 56.074 0 22.684-6.662 41.646-19.98 56.782-13.344 15.149-29.914 22.69-49.67 22.69-20.060 0-37.191-7.614-51.302-22.69-14.204-15.142-21.256-34.025-21.256-56.782 0-22.373 7.046-41.091 21.256-56.074 14.111-14.984 31.243-22.446 51.302-22.446zM2320.54 659.079v-383.169h-57.258v383.169h57.258zM2477.508 268.058c-36.887 0-67.648 12.531-92.327 37.515-24.66 24.99-37.039 55.922-37.039 92.803 0 38.143 11.904 69.472 35.77 93.828s52.902 36.563 87.165 36.563c15.783 0 30.45-2.862 43.946-8.652 13.477-5.79 24.653-13.159 33.536-22.208 8.89-9.035 15.955-17.839 21.269-26.411 5.221-8.566 9.504-17.132 12.836-25.691l5.948-14.838-174.258-72.096c13.496-26.332 34.594-39.505 63.219-39.505 26.332 0 47.747 11.976 64.164 36.015l44.409-29.663c-9.914-14.832-23.867-28.156-41.95-39.98-18.156-11.804-40.351-17.68-66.689-17.68zM2404.936 402.342l116.505 48.381c-3.331 8.249-9.352 14.917-18.235 19.987-8.89 5.076-18.956 7.614-30.146 7.614-16.808 0-32.518-6.907-47.105-20.707-14.666-13.787-21.659-32.274-21.018-55.275zM2889.302 268.058c-52.036 0-95.658 17.608-130.867 52.823s-52.823 79.161-52.823 131.819c0 52.671 17.614 96.61 52.823 131.819 35.208 35.215 78.831 52.823 130.867 52.823 53.285 0 96.597-19.273 129.829-57.74l-31.567-30.615c-24.025 29.974-56.775 44.898-98.256 44.898-38.559 0-70.992-13.014-97.483-39.022-26.491-26.021-39.736-60.040-39.736-102.162 0-42.115 13.245-76.22 39.736-102.228 26.491-26.028 59.022-39.022 97.483-39.022 42.433 0 78.679 17.132 108.58 51.316l31.567-31.56c-16.114-19.425-36.405-34.832-60.754-46.16-24.283-11.342-50.774-16.986-79.399-16.986zM3115.424 275.91h-45.453v353.506h45.453v-353.506zM3189.503 488.952c23.391 24.508 53.133 36.795 89.379 36.795 36.173 0 65.989-12.287 89.379-36.795 23.404-24.508 35.070-55.202 35.070-92.083s-11.666-67.581-35.070-92.083c-23.391-24.501-53.133-36.801-89.379-36.801s-65.989 12.3-89.379 36.801-35.063 55.202-35.063 92.083 11.672 67.575 35.063 92.083zM3223.284 333.498c15.631-15.942 34.191-23.959 55.519-23.959 21.421 0 39.888 8.017 55.513 23.959 15.631 15.942 23.49 37.112 23.49 63.451s-7.852 47.509-23.49 63.457c-15.625 15.935-34.191 23.946-55.513 23.946-21.408 0-39.888-8.011-55.519-23.946-15.631-15.955-23.47-37.125-23.47-63.457s7.839-47.509 23.47-63.451zM3654.596 275.91h-43.464v33.55h-1.983c-6.913-11.5-17.449-21.342-31.573-29.339-14.111-8.083-29.101-12.135-44.891-12.135-30.298 0-53.213 9.207-68.837 27.68-15.631 18.407-23.47 43.153-23.47 74.085v148.157h45.433v-140.715c0-45.129 19.908-67.654 59.729-67.654 18.791 0 34.098 7.541 45.916 22.697 11.818 15.142 17.766 32.598 17.766 52.347v133.326h45.446v-241.998h-0.073zM3808.622 268.058c-31.256 0-58.289 12.379-80.985 37.046-22.677 24.653-34.012 55.275-34.012 91.838s11.342 67.185 34.012 91.851c22.697 24.66 49.723 37.039 80.985 37.039 18.407 0 34.984-3.966 49.65-11.818 14.673-7.931 25.625-17.766 32.842-29.663h1.989l-1.989 33.556v111.508h45.44v-353.506h-43.45v33.55h-1.989c-7.218-11.811-18.169-21.725-32.842-29.663-14.666-7.759-31.243-11.738-49.65-11.738zM3815.998 309.539c21.408 0 39.577 7.938 54.561 23.728 14.997 15.777 22.446 37.039 22.446 63.682s-7.449 47.912-22.446 63.689c-14.984 15.783-33.153 23.715-54.561 23.715-21.097 0-39.181-8.011-54.33-23.946-15.149-15.955-22.697-37.125-22.697-63.457s7.548-47.509 22.697-63.451c15.149-16.021 33.305-23.959 54.33-23.959z" />
<glyph unicode="&#xe902;" glyph-name="forseti-logo" d="M925.128 532.512c6.832 60.248 5.392 121.152-4.24 181.016-250.328 192.080-562.728 193.384-801.696 0-8.096-60.024-8.696-120.832-1.784-181.016 89.848 98.976 237.16 162.784 403.528 162.784 166.36 0 314.168-65.112 404.016-164.088zM863.592 327.56c20.136 39.72 35.8 81.544 46.72 124.696-83.824 105.008-226.928 174.192-389.376 174.192-162.456 0-305.216-69.024-389.048-173.864 42.968-205.6 194.2-358.608 387.752-433.16 28.824 11.928 56.856 25.632 84 41.024-193.56 77.16-329.816 239.776-347.064 343.792 73.416 67.88 137.712 101.248 264.688 101.248 126.96 0 269.736-70.8 341.848-177.928z" />
<glyph unicode="&#xe903;" glyph-name="kubernetes-logo" d="M513.911 838.987c-12.768 0-23.112-11.504-23.112-25.68 0-0.216 0.040-0.432 0.048-0.648-0.016-1.928-0.112-4.24-0.048-5.928 0.312-8.184 2.088-14.448 3.16-21.976 1.944-16.136 3.576-29.504 2.568-41.936-0.984-4.688-4.432-8.976-7.512-11.952l-0.536-9.776c-13.872-1.152-27.832-3.256-41.784-6.416-60.008-13.64-111.688-44.552-151.032-86.288-2.552 1.744-7.016 4.952-8.344 5.928-4.128-0.552-8.296-1.832-13.728 1.336-10.344 6.968-19.768 16.576-31.168 28.16-5.216 5.544-9 10.808-15.208 16.144-1.408 1.216-3.56 2.856-5.136 4.104-4.848 3.864-10.576 5.88-16.104 6.080-7.104 0.24-13.944-2.536-18.416-8.16-7.96-9.984-5.416-25.232 5.672-34.080 0.112-0.088 0.232-0.16 0.344-0.248 1.52-1.232 3.392-2.816 4.792-3.848 6.584-4.864 12.6-7.352 19.16-11.216 13.824-8.544 25.288-15.616 34.376-24.152 3.544-3.792 4.168-10.456 4.64-13.336l7.408-6.624c-39.664-59.68-58.016-133.4-47.168-208.52l-9.68-2.824c-2.552-3.288-6.16-8.472-9.928-10.024-11.896-3.744-25.28-5.12-41.44-6.816-7.592-0.624-14.136-0.248-22.176-1.784-1.768-0.336-4.232-0.976-6.168-1.432-0.072-0.016-0.136-0.032-0.2-0.048-0.104-0.024-0.248-0.072-0.344-0.104-13.624-3.288-22.376-15.808-19.56-28.152 2.824-12.344 16.128-19.848 29.832-16.888 0.104 0.016 0.24 0.024 0.344 0.048 0.16 0.040 0.296 0.112 0.448 0.152 1.904 0.424 4.304 0.888 5.976 1.336 7.904 2.12 13.64 5.224 20.744 7.944 15.296 5.488 27.96 10.080 40.296 11.848 5.16 0.408 10.584-3.176 13.288-4.68l10.080 1.728c23.184-71.888 71.776-129.984 133.304-166.448l-4.2-10.080c1.512-3.912 3.184-9.2 2.056-13.064-4.488-11.632-12.168-23.92-20.92-37.608-4.232-6.32-8.576-11.224-12.392-18.472-0.912-1.736-2.080-4.392-2.968-6.224-5.944-12.712-1.584-27.344 9.832-32.84 11.488-5.52 25.736 0.312 31.904 13.048 0.008 0.016 0.040 0.032 0.048 0.040 0.008 0.024 0 0.040 0 0.056 0.88 1.808 2.128 4.184 2.864 5.872 3.28 7.504 4.36 13.936 6.672 21.192 6.112 15.36 9.472 31.48 17.888 41.52 2.304 2.752 6.064 3.808 9.968 4.84l5.232 9.488c53.64-20.584 113.68-26.112 173.648-12.496 13.68 3.112 26.888 7.128 39.664 11.944 1.472-2.6 4.192-7.624 4.936-8.88 3.952-1.288 8.28-1.952 11.808-7.168 6.296-10.76 10.6-23.488 15.848-38.864 2.296-7.256 3.448-13.688 6.712-21.184 0.752-1.712 1.992-4.12 2.872-5.928 6.16-12.784 20.448-18.624 31.952-13.088 11.408 5.496 15.768 20.136 9.824 32.84-0.88 1.832-2.104 4.496-3.008 6.224-3.832 7.24-8.168 12.096-12.4 18.416-8.76 13.696-16.016 25.072-20.496 36.704-1.88 6 0.312 9.736 1.776 13.624-0.872 1-2.744 6.672-3.856 9.336 63.944 37.76 111.112 98.016 133.248 167.624 3-0.472 8.192-1.384 9.88-1.728 3.488 2.288 6.68 5.28 12.936 4.792 12.344-1.792 25.008-6.368 40.304-11.848 7.112-2.72 12.84-5.88 20.744-8 1.672-0.448 4.072-0.856 5.984-1.28 0.152-0.040 0.288-0.12 0.44-0.16 0.104-0.016 0.248-0.024 0.344-0.040 13.712-2.952 27.024 4.536 29.832 16.88 2.824 12.336-5.92 24.856-19.544 28.152-1.984 0.464-4.8 1.224-6.728 1.584-8.040 1.52-14.576 1.144-22.168 1.784-16.16 1.688-29.544 3.072-41.432 6.816-4.856 1.872-8.304 7.648-9.984 10.024l-9.336 2.728c4.84 35.008 3.528 71.448-4.832 107.904-8.456 36.8-23.392 70.464-43.312 100.12 2.4 2.168 6.912 6.168 8.2 7.352 0.368 4.152 0.048 8.496 4.336 13.088 9.096 8.536 20.56 15.616 34.376 24.152 6.56 3.864 12.624 6.352 19.208 11.216 1.496 1.096 3.52 2.84 5.096 4.104 11.080 8.84 13.632 24.096 5.672 34.080-7.952 9.976-23.376 10.92-34.464 2.072-1.584-1.248-3.728-2.88-5.144-4.096-6.2-5.336-10.040-10.616-15.264-16.152-11.392-11.576-20.824-21.232-31.168-28.2-4.488-2.608-11.048-1.696-14.024-1.52l-8.792-6.28c-50.136 52.568-118.384 86.168-191.88 92.704-0.2 3.072-0.48 8.648-0.536 10.32-3.008 2.88-6.648 5.336-7.552 11.56-1 12.424 0.672 25.8 2.616 41.936 1.072 7.528 2.848 13.792 3.168 21.976 0.072 1.856-0.048 4.56-0.056 6.568-0.008 14.192-10.36 25.696-23.12 25.696zM484.967 659.707l-6.864-121.248-0.496-0.248c-0.464-10.848-9.384-19.504-20.344-19.504-4.496 0-8.632 1.44-12 3.904l-0.2-0.096-99.416 70.48c30.56 30.040 69.64 52.248 114.68 62.472 8.224 1.856 16.448 3.248 24.64 4.24zM542.903 659.707c52.576-6.464 101.216-30.28 138.488-66.768l-98.784-70.032-0.344 0.144c-8.776-6.4-21.12-4.808-27.952 3.76-2.808 3.504-4.272 7.64-4.448 11.8l-0.104 0.048-6.856 121.048zM309.591 547.699l90.776-81.192-0.096-0.496c8.184-7.128 9.4-19.488 2.568-28.056-2.8-3.504-6.544-5.864-10.568-6.96l-0.096-0.4-116.36-33.576c-5.928 54.136 6.84 106.784 33.776 150.68zM717.583 547.643c13.496-21.864 23.704-46.288 29.792-72.752 6.008-26.16 7.504-52.264 5.040-77.504l-116.96 33.688-0.096 0.496c-10.48 2.864-16.912 13.512-14.472 24.208 0.992 4.376 3.32 8.072 6.464 10.816l-0.048 0.248 90.28 80.8zM495.295 460.219h37.184l23.12-28.888-8.304-36.064-33.376-16.048-33.488 16.104-8.296 36.048 23.16 28.848zM614.503 361.347c1.584 0.080 3.168-0.064 4.696-0.344l0.2 0.24 120.36-20.352c-17.616-49.48-51.32-92.352-96.36-121.048l-46.72 112.856 0.152 0.184c-4.288 9.976 0 21.672 9.872 26.432 2.528 1.224 5.168 1.904 7.8 2.032v0zM412.367 360.859c9.184-0.136 17.416-6.504 19.552-15.856 1-4.376 0.512-8.72-1.136-12.536l0.344-0.448-46.224-111.72c-43.216 27.736-77.648 69.264-96.056 120.208l119.32 20.248 0.2-0.24c1.328 0.232 2.688 0.36 4 0.344v0zM513.167 311.907c3.192 0.12 6.448-0.536 9.528-2.024 4.040-1.952 7.168-5.016 9.136-8.696h0.448l58.832-106.28c-7.632-2.56-15.488-4.752-23.512-6.568-44.992-10.216-89.832-7.12-130.432 6.712l58.672 106.088h0.096c3.52 6.584 10.2 10.504 17.232 10.768z" />
<glyph unicode="&#xe904;" glyph-name="advanced-solutions-lab" d="M563.6 856.144c0-27.040-21.92-48.96-48.96-48.96s-48.96 21.92-48.96 48.96c0 27.040 21.92 48.96 48.96 48.96s48.96-21.92 48.96-48.96zM902.728 660.064c0-27.040-21.92-48.96-48.96-48.96s-48.96 21.92-48.96 48.96c0 27.040 21.92 48.96 48.96 48.96s48.96-21.92 48.96-48.96zM222.072 660.064c0-27.040-21.92-48.96-48.96-48.96s-48.96 21.92-48.96 48.96c0 27.040 21.92 48.96 48.96 48.96s48.96-21.92 48.96-48.96zM591.56 449.584c0-42.482-34.438-76.92-76.92-76.92s-76.92 34.438-76.92 76.92c0 42.482 34.438 76.92 76.92 76.92s76.92-34.438 76.92-76.92zM902.728 265.624c0-27.040-21.92-48.96-48.96-48.96s-48.96 21.92-48.96 48.96c0 27.040 21.92 48.96 48.96 48.96s48.96-21.92 48.96-48.96zM222.072 265.624c0-27.040-21.92-48.96-48.96-48.96s-48.96 21.92-48.96 48.96c0 27.040 21.92 48.96 48.96 48.96s48.96-21.92 48.96-48.96zM512.96 432.896l-378.24 226.92 378.24 218.76 378.008-214.552-378.008-231.128zM204.68 659.216l308.16-184.8 308.288 188.4-307.928 174.84-308.52-178.44zM513.072 13.376l-379.44 254.52 380.52 210.72 373.92-212.992-375-252.248zM201.072 265.376l312-208.92 307.688 206.64-306.84 174.84-312.848-172.56zM526.318 46.006l-31.123-17.117-343.151 623.924 31.123 17.117 343.151-623.924zM865.963 646.864l-335.090-622.33-31.282 16.844 335.090 622.33 31.282-16.844zM525.948 845.973l-338.632-586.511-30.76 17.76 338.632 586.511 30.76-17.76zM870.569 271.037l-30.853-17.604-339.946 595.797 30.853 17.604 339.946-595.797zM497 861.176h35.52v-823.2h-35.52v823.2zM149.112 655.976h35.52v-397.192h-35.52v397.192zM835.872 660.176h35.512v-397.2h-35.512v397.2zM563.6 36.416c0-27.040-21.92-48.96-48.96-48.96s-48.96 21.92-48.96 48.96c0 27.040 21.92 48.96 48.96 48.96s48.96-21.92 48.96-48.96z" />
<glyph unicode="&#xe905;" glyph-name="app-engine" d="M512 724c-152.432 0-276-123.568-276-276 0-152.44 123.568-276 276-276 152.44 0 276 123.56 276 276v0c0 152.432-123.56 276-276 276zM512 237.648c-115.912-0.072-209.936 93.84-210 209.76-0.064 115.904 93.848 209.92 209.76 210 115.768 0.064 209.744-93.64 210.008-209.408 0.064-115.848-93.8-209.816-209.648-209.88-0.040 0-0.080 0-0.12 0zM945.688 480.76l-115.336 36c4.92-22.584 7.416-45.632 7.456-68.76 0-16.264-1.216-32.504-3.608-48.592h111.608c9.448 1.456 16.592 9.288 17.16 18.832v43.56c-0.56 9.536-7.712 17.392-17.16 18.84zM512 773.8c22.712-0.016 45.352-2.392 67.56-7.080l-41.4 114.84c-1.456 9.488-9.376 16.64-18.96 17.16h-17.28c-9.6-0.472-17.544-7.648-18.96-17.16l-36-114.36c21.328 4.304 43.040 6.48 64.8 6.48zM186.2 448c-0.024 23.192 2.432 46.328 7.312 69l-115.312-36c-9.488-1.472-16.648-9.376-17.168-18.96v-43.552c0.568-9.544 7.72-17.384 17.168-18.84h111.592c-2.408 16.088-3.608 32.328-3.592 48.6zM610.768 538.24l-26.768-26.16c-41.32 36.304-104.264 32.224-140.56-9.104-33.128-37.72-33.008-94.192 0.28-131.784l-26.16-26.16c53.344-53.344 139.84-53.344 193.2 0 53.352 53.352 53.352 139.856 0.008 193.208zM556.768 403.232c-24.728-24.768-64.84-24.8-89.608-0.080s-24.808 64.832-0.088 89.6c24.72 24.776 64.832 24.808 89.6 0.088 0.024-0.024 0.064-0.056 0.096-0.088 24.72-24.392 24.984-64.192 0.584-88.912-0.184-0.208-0.4-0.392-0.584-0.608z" />
<glyph unicode="&#xe906;" glyph-name="beyondcorp" d="M810.192 676c-12.256-13.144-25.288-25.56-39-37.2 105.832-146.248 73.056-350.616-73.192-456.44-103.128-74.608-240.168-82.592-351.24-20.44h69.24c-13.408 16.288-25.072 33.952-34.8 52.672h-104.032c-14.936 14.688-28.44 30.768-40.328 48h123.24c-6.368 17.288-11.736 34.912-16.080 52.816h-136.32c-6.888 15.52-12.536 31.576-16.92 48h144c-2.552 17.032-4.36 34.6-5.4 52.672h-148.080c-0.96 10.080-1.448 20.408-1.448 30.84v17.4h147.96c0.144 17.6 1.224 35.184 3.24 52.68h-144c3.6 16.344 8.448 32.4 14.52 48h137.272c3.464 17.784 7.864 35.368 13.2 52.68h-123.824c10.504 17.064 22.56 33.136 36 48h105.832c8.072 18.352 17.712 35.976 28.8 52.68h-73.792c92.528 62.408 210.616 72.92 312.728 27.84 10.248-45.472 27.84-88.952 52.080-128.768 0 0 118.432 67.56 136.56 139.080 11.256 52.832-22.44 104.792-75.264 116.048-49.392 10.536-98.68-18.272-113.736-66.488v-2.64c-196.904 72.112-414.984-29.064-487.096-225.96-72.112-196.904 29.064-414.976 225.968-487.088 196.904-72.12 414.976 29.064 487.080 225.96 15.32 41.832 23.16 86.024 23.16 130.568 2.312 82.968-24.712 164.088-76.328 229.088zM688.408 793.592c6.384 24.568 31.488 39.312 56.048 32.912 24.56-6.384 39.304-31.48 32.904-56.040-6.392-24.568-31.48-39.312-56.040-32.912-0.024 0-0.024 0.008-0.048 0.008v0c-24.536 6.4-39.256 31.488-32.864 56.032z" />
<glyph unicode="&#xe907;" glyph-name="bigquery" d="M512 726.408c-153.688 0-278.28-124.592-278.28-278.288 0-153.68 124.592-278.272 278.28-278.272 153.64 0 278.216 124.512 278.272 278.16 0.072 153.688-124.464 278.328-278.16 278.408-0.032-0.008-0.072-0.008-0.112-0.008zM512 236.808c-116.64 0-211.2 94.544-211.2 211.192 0 116.64 94.56 211.2 211.2 211.2 116.648 0 211.192-94.56 211.192-211.2v0c0-116.648-94.544-211.192-211.192-211.192zM380 458.8v-86.52c12.792-21.992 30.856-40.464 52.56-53.76v140.28h-52.56zM484.040 532v-233.272c17.368-3.288 35.2-3.288 52.552 0v233.272h-52.552zM593.232 422.808v-102.728c21.984 13.888 40.064 33.128 52.568 55.92v46.808h-52.568zM712.272 276.512l-28.792-28.92c-5.016-5.096-5.016-13.264 0-18.36l109.32-109.312c5.112-5.096 13.368-5.096 18.472 0l28.808 28.808c5.016 5.088 5.016 13.264 0 18.352l-109.432 109.44c-5.104 5.008-13.272 5.008-18.376-0.008z" />
<glyph unicode="&#xe908;" glyph-name="cloud-apis" d="M689.728 448l-177.728-177.728-177.72 177.728 177.72 177.72 177.728-177.72zM512 332.808l115.192 115.192-115.192 115.2-115.080-115.2 115.080-115.192zM683.352 328.36h105l119.648 119.64-119.648 119.64h-105l119.648-119.64zM392.36 276.648v-105l119.64-119.648 119.648 119.648v105l-119.648-119.648zM512 844l-119.64-119.64v-105l119.64 119.64 119.648-119.64v105zM340.64 567.64h-105l-119.64-119.64 119.64-119.64h105l-119.64 119.64z" />
<glyph unicode="&#xe909;" glyph-name="cloud-bigtable" d="M748.272 668.080v-248.16c-0.024-5.368-2.904-10.296-7.544-12.96l-40.32-23.272v256.312c-0.032 10.704-5.736 20.568-15 25.92l-200.048 116.16c-31.128 17.904-51.32 50.104-53.872 85.92l301.792-174c9.264-5.352 14.968-15.216 14.992-25.92zM820.768 353.44l-214.808-124.208c-4.64-2.672-10.36-2.672-15 0l-40.192 23.168 222.352 128.52c9.232 5.36 14.904 15.232 14.88 25.92v231.36c0.096 35.968 18.096 69.528 48 89.512v-347.992c0.064-10.872-5.768-20.92-15.232-26.28zM584 133.352l-214.56 123.84c-4.688 2.68-7.576 7.688-7.552 13.080v46.32l222.112-128.28c9.256-5.296 20.624-5.296 29.88 0l200.768 115.688c31.032 17.984 68.992 19.384 101.272 3.728l-301.568-174.376c-9.368-5.488-20.976-5.488-30.352 0zM275.72 227.92v248.16c0 5.336 2.832 10.272 7.448 12.96l40.32 23.28v-256.32c0.016-10.704 5.736-20.576 15-25.92l200.28-115.672c31.128-18.112 51.264-50.48 53.752-86.408l-301.8 174c-9.28 5.328-15 15.208-15 25.92zM203.24 542.56l214.8 124.192c4.64 2.68 10.36 2.68 15 0l40.32-23.272-222.48-128.4c-9.24-5.36-14.912-15.24-14.88-25.912v-231.36c-0.176-35.992-18.16-69.552-48-89.648v348.008c-0.104 10.912 5.736 21.016 15.24 26.392zM440 762.64l214.44-123.84c4.68-2.632 7.56-7.592 7.56-12.96v-46.552l-222 128.272c-9.248 5.336-20.64 5.336-29.88 0l-200.88-115.56c-31.072-17.944-69.024-19.296-101.28-3.592l301.68 174.232c9.368 5.528 21 5.528 30.36 0zM512 384.272c-2.896-0.008-5.752 0.728-8.28 2.168l-141.84 81.968v-36l150.12-86.288 150 86.648v35.992l-141.84-82.2c-2.472-1.464-5.288-2.24-8.16-2.288zM520.16 312.768c-5.096-2.888-11.336-2.888-16.44 0l-141.84 81.96v-26.416c-0.040-5.688 2.992-10.944 7.912-13.8l134.168-77.4c4.904-2.808 10.928-2.808 15.84 0l134.16 77.4c4.92 2.848 7.944 8.112 7.92 13.8v26.416l-141.72-81.96zM512 419.808l150 86.632v16.808c-0.016 5.64-3.024 10.848-7.92 13.68l-134.272 77.392c-4.896 2.848-10.952 2.848-15.84 0l-134.168-77.4c-4.88-2.832-7.904-8.040-7.912-13.68v-16.808l150.112-86.624z" />
<glyph unicode="&#xe90a;" glyph-name="cloud-cdn" d="M512 856l-132-132v-99.72l132 132 132-132v99.72zM512 40l-132 132v99.728l132-132 132 132v-99.728zM104 448l132-132h99.72l-132 132 132 132h-99.72zM920 448l-132-132h-99.728l132 132-132 132h99.728zM392 580h240c6.632 0 12-5.376 12-12v-240c0-6.632-5.368-12-12-12h-240c-6.624 0-12 5.368-12 12v240c0 6.624 5.376 12 12 12z" />
<glyph unicode="&#xe90b;" glyph-name="cloud-dataflow" d="M784.76 446.2c0-23.66-19.18-42.84-42.84-42.84s-42.84 19.18-42.84 42.84c0 23.66 19.18 42.84 42.84 42.84s42.84-19.18 42.84-42.84zM324.92 446.2c0-23.66-19.18-42.84-42.84-42.84s-42.84 19.18-42.84 42.84c0 23.66 19.18 42.84 42.84 42.84s42.84-19.18 42.84-42.84zM554.84 510.52c0-23.66-19.18-42.84-42.84-42.84s-42.84 19.18-42.84 42.84c0 23.66 19.18 42.84 42.84 42.84s42.84-19.18 42.84-42.84zM554.84 381.88c0-23.66-19.18-42.84-42.84-42.84s-42.84 19.18-42.84 42.84c0 23.66 19.18 42.84 42.84 42.84s42.84-19.18 42.84-42.84zM576.688 712.12l131.752 76.080-63.848 36.84h-1.672l-130.92-75.6-130.92 75.6h-1.672l-63.848-36.84 131.76-76.080-198.728-114.12v-80.408h67.816v43.088l162.952 95.28v-69.96h65.288v69.96l162.584-95.28v-43.088h68.176v80.408zM707.232 332.44l-162.584-95.28v69.248h-65.288v-69.248l-162.952 95.28v43.072h-67.816v-80.392l198.968-114.12-132-76.192 63.848-36.848h1.672l130.92 75.6 130.92-75.6h1.672l63.848 36.848-132 76.192 198.968 114.12v80.392h-68.176z" />
<glyph unicode="&#xe90c;" glyph-name="cloud-datalab" d="M483.080 732.88c0-16.237-13.163-29.4-29.4-29.4s-29.4 13.163-29.4 29.4c0 16.237 13.163 29.4 29.4 29.4s29.4-13.163 29.4-29.4zM608.848 781.36c0-24.389-19.771-44.16-44.16-44.16s-44.16 19.771-44.16 44.16c0 24.389 19.771 44.16 44.16 44.16s44.16-19.771 44.16-44.16zM527.232 886.84c0-16.237-13.163-29.4-29.4-29.4s-29.4 13.163-29.4 29.4c0 16.237 13.163 29.4 29.4 29.4s29.4-13.163 29.4-29.4zM621.688 232l-20.768 36h142.312l-141.584 245.28h-4.92l121.784-209.28h-316.8l-37.92-65.768c-2.632-4.56-2.632-10.192 0-14.752l46.2-80.048h304.192l50.4 87.368-0.584 1.2h-142.312zM770.232 247.232l-160.544 278.28c-1.312 2.224-2.016 4.752-2.040 7.32v59.168h24c3.304 0 6 2.688 6 6v33.832c0 3.32-2.696 6-6 6h-238.688c-3.32 0-6-2.68-6-6v-33.832c0-3.312 2.68-6 6-6h24v-59.168c-0.024-2.568-0.728-5.096-2.040-7.32l-161.28-278.28c-5.232-9.096-5.232-20.296 0-29.392l58.68-101.648c5.28-9.048 14.96-14.616 25.44-14.632h348.008c10.48-0.016 20.176 5.56 25.432 14.632l58.688 101.648c5.384 9.024 5.528 20.256 0.344 29.392zM720.080 226.352l-40.080-69.232c-2.624-4.544-7.48-7.336-12.728-7.312h-311.272c-4.984 0.232-9.504 2.992-12 7.312l-40.080 69.232c-2.64 4.568-2.64 10.192 0 14.768l156 269.64c2.616 4.44 4.024 9.496 4.080 14.648v66.592h96v-66.592c0.016-5.184 1.384-10.272 3.96-14.768l156-269.64c2.672-4.496 2.76-10.056 0.232-14.648h-0.112zM506.592 424.592h143.64l-21.584 34.088h-141.728zM536 376l20.648-35.64h146.512l-21.24 35.64z" />
<glyph unicode="&#xe90d;" glyph-name="cloud-dataprep" d="M264.56 484c17.888 0 32.4-14.504 32.4-32.408 0-17.888-14.504-32.4-32.4-32.4s-32.4 14.504-32.4 32.4c0.008 17.904 14.504 32.408 32.4 32.408v0 0zM264.56 512.32c-33.536 0-60.728-27.176-60.728-60.728 0-33.52 27.184-60.712 60.728-60.712 33.528 0 60.72 27.184 60.72 60.712 0 33.552-27.184 60.728-60.72 60.728v0zM836 513.88h-294.232v59.4h139.8c6.832 1.112 11.584 7.4 10.792 14.28v100.44c1.008 7.016-3.8 13.528-10.792 14.64h-139.8v102.12h-60.008v-293.64l-5.76 0.6c-33.528-0.016-60.712-27.208-60.688-60.744 0.008-33.512 27.168-60.68 60.688-60.704 2.040 0 3.96 0 5.88 0.608v-300h60v105.12h82.808c4.664 0 8.392 6.352 8.392 14.272v100.92c0 7.808-3.728 14.16-8.392 14.16h-82.808v60.008h294.12c10.92 0 19.92 6.368 19.92 14.28v99.952c-0.36 8.408-9.36 14.288-19.92 14.288zM476 418.84c-17.888-0.232-32.584 14.088-32.824 31.976-0.224 17.88 14.088 32.584 31.984 32.824 2.416 0.024 4.832-0.216 7.192-0.72v-63.488c-2.088-0.4-4.216-0.6-6.352-0.592zM371.832 293.92c17.896 0 32.408-14.504 32.408-32.408 0-17.888-14.504-32.4-32.408-32.4-17.888 0-32.4 14.504-32.4 32.4v0 0c0.072 17.88 14.536 32.336 32.4 32.408zM371.832 322.232c-33.528 0-60.72-27.184-60.72-60.72 0-33.52 27.184-60.712 60.72-60.712s60.728 27.184 60.728 60.712v0 0c0 33.536-27.184 60.72-60.728 60.72v0zM371.832 669.64c17.896 0 32.408-14.504 32.408-32.4s-14.504-32.408-32.408-32.408c-17.888 0-32.4 14.504-32.4 32.408 0.008 17.896 14.512 32.4 32.4 32.4v0 0zM371.832 697.96c-33.528 0-60.72-27.184-60.72-60.72s27.184-60.728 60.72-60.728c33.536 0 60.728 27.184 60.728 60.728 0 33.536-27.184 60.72-60.728 60.72v0z" />
<glyph unicode="&#xe90e;" glyph-name="cloud-dataproc" d="M624.808 736v0c39.76-68.872 16.168-156.944-52.712-196.712-68.872-39.76-156.944-16.168-196.712 52.712-39.76 68.872-16.168 156.944 52.712 196.712 21.856 12.616 46.656 19.272 71.904 19.288 51.488 0.032 99.064-27.416 124.808-72zM439.408 629.2c19.304-33.472 62.080-44.952 95.544-25.64 33.472 19.304 44.944 62.088 25.64 95.552-19.296 33.472-62.080 44.944-95.544 25.64-21.712-12.52-35.064-35.696-35.008-60.76 0.016-12.256 3.24-24.296 9.368-34.92v0.128zM356 311.192c28.32-11.952 53.112-30.944 72-55.192v360l-72 48v-352.808zM861.56 353.688v0c39.872-68.816 16.416-156.92-52.4-196.808-68.816-39.864-156.912-16.408-196.792 52.408s-16.424 156.912 52.392 196.784c44.552 25.832 99.504 25.88 144.12 0.168 21.864-12.632 40.040-30.8 52.68-52.672v0.12zM676.408 246.512c21.8-31.904 65.328-40.088 97.224-18.288 28.432 19.432 38.504 56.664 23.72 87.776v0c-21.792 31.896-65.32 40.104-97.216 18.304-28.448-19.432-38.512-56.672-23.728-87.792zM413.36 551.44l317.992-183.6 77.528 38.392-312 180.008c-24.424-18.52-53.168-30.496-83.52-34.8zM411.44 340v0c39.736-68.888 16.104-156.952-52.8-196.688-68.888-39.728-156.944-16.096-196.68 52.808-39.736 68.88-16.096 156.944 52.792 196.688 0.008 0 0.008 0 0.008 0 68.168 39.912 155.8 17.024 195.728-51.144 0.32-0.552 0.64-1.104 0.952-1.664zM226.28 232.728c17.784-34.312 60-47.712 94.304-29.928 34.304 17.792 47.704 60 29.912 94.312-0.96 1.856-2.016 3.68-3.144 5.456v0c-20.464 32.776-63.616 42.76-96.392 22.296-31.2-19.48-41.992-59.8-24.688-92.264v0.128zM696.92 421.36l-332.512-192.008-4.688-85.792 300.008 173.4c-3.728 29.632 25.312 75.12 37.192 104.4z" />
<glyph unicode="&#xe90f;" glyph-name="cloud-datastore" d="M366.080 612.168h-102.12c-8.024 0-14.52-6.504-14.52-14.52v-102.608c0-8.016 6.496-14.52 14.52-14.52h102.12c8.024 0 14.512 6.504 14.512 14.52v102.6c-0.064 7.984-6.52 14.456-14.512 14.528zM563 415.36h-102.12c-8.024 0-14.52-6.496-14.52-14.512v-102.608c0-8.016 6.496-14.504 14.52-14.504h102.12c8.016 0 14.512 6.496 14.512 14.504v102.6c0 8.016-6.496 14.52-14.512 14.52zM760.040 415.36h-102.232c-8.016 0-14.528-6.496-14.528-14.512v-102.608c0-8.016 6.512-14.504 14.528-14.504h102.112c8.016 0 14.512 6.496 14.512 14.504v102.6c0 8.016-6.496 14.512-14.512 14.512zM366.080 415.36h-102.12c-7.992-0.064-14.456-6.52-14.52-14.512v-102.608c0-8.016 6.496-14.504 14.52-14.504h102.12c7.832 0.32 13.992 6.8 13.92 14.624v102.48c-0.064 7.992-6.528 14.456-14.512 14.512zM350.832 313.12h-72.24v72.96h72.968l-0.728-72.96zM563 612.168h-102.12c-8.024 0-14.52-6.504-14.52-14.52v-102.608c0-8.016 6.496-14.52 14.52-14.52h102.12c8.016 0 14.512 6.504 14.512 14.52v102.6c0 8.016-6.496 14.528-14.512 14.528zM548 509.92h-72v72.96h72v-72.96zM760.040 612.168h-102.12c-8.016 0-14.512-6.504-14.512-14.52v-102.608c0-8.016 6.496-14.52 14.512-14.52h102.12c8.016 0 14.52 6.504 14.52 14.52v102.6c-0.064 7.984-6.528 14.456-14.52 14.528zM745.408 509.92h-72.968v72.96h72.968v-72.96z" />
<glyph unicode="&#xe910;" glyph-name="cloud-deployment-manager" d="M634.408 144.408h-242.408c-6.624 0-12 5.36-12 12v0c0 6.616 5.376 12 12 12h242.408c6.616 0 12-5.384 12-12v0c0-6.64-5.384-12-12-12zM467 261.88h92.88v-105.368h-92.88v105.368zM771.92 340c-6.016-0.016-11.768 2.416-15.96 6.728l-162.96 169.312-109.56-115.2c-7.952-8.408-21.040-9.232-30-1.92l-82.8 66.84-87.72-116.528c-4.168-5.552-10.704-8.832-17.64-8.872h-150.48v-68.28c0.064-16.28 13.248-29.464 29.52-29.512h738.368c16.264 0.056 29.456 13.232 29.504 29.512v67.92h-140.272zM254.12 384.64l94.92 126c7.4 9.784 21.32 11.72 31.096 4.32 0.168-0.12 0.312-0.24 0.464-0.368l84.728-68.392 111.48 117.24c4.168 4.352 9.928 6.832 15.96 6.84v0c6 0.008 11.768-2.408 15.96-6.72l172.544-178.8h130.92v271.32c-0.056 16.28-13.24 29.456-29.504 29.512h-738.368c-16.272-0.064-29.464-13.232-29.52-29.512v-271.44h139.32z" />
<glyph unicode="&#xe911;" glyph-name="cloud-dns" d="M209.24 264.648c103.456-170.808 325.776-225.4 496.56-121.944 170.808 103.456 225.4 325.784 121.952 496.576-65.584 108.24-182.952 174.328-309.52 174.232v120l-162.232-155.752 162.232-165.12v120c155.28 0.016 281.176-125.84 281.2-281.128 0.032-155.272-125.832-281.176-281.12-281.2-98.048 0-189.016 51.064-240.072 134.768l-69-40.432zM322.408 361.728v146.272h47.032c12.168 0.184 24.168-2.832 34.808-8.76 10.192-5.832 18.52-14.456 24-24.832 5.88-11.088 8.888-23.472 8.76-36v-6.72c0.2-12.528-2.736-24.904-8.512-36-5.496-10.392-13.816-19.008-24-24.84-10.44-6.048-22.272-9.184-34.32-9.12h-47.768zM357.68 480.64v-92.64h12c9.072-0.496 17.8 3.56 23.28 10.808 6.080 9.52 8.944 20.76 8.16 32.040v6.352c0.792 11.24-2.080 22.44-8.16 31.92-5.688 7.4-14.696 11.448-24 10.808l-11.28 0.712zM577.16 361.728h-35.040l-51.832 90.952v-90.952h-35.168v146.272h35.288l51.712-90.96v90.96h35.16l-0.12-146.272zM674.84 400c0.208 4.664-1.848 9.128-5.528 12-5.88 3.952-12.376 6.936-19.192 8.88-7.664 2.504-15.168 5.504-22.432 9-18.96 9.28-28.456 22.040-28.456 38.28-0.128 7.752 2.368 15.32 7.080 21.48 5.248 6.536 12.168 11.52 20.040 14.4 9.424 3.792 19.504 5.712 29.648 5.64 9.688 0.152 19.312-1.776 28.192-5.64 8.016-3.288 14.88-8.832 19.808-15.96 4.712-7.104 7.152-15.48 6.96-24h-36c0.28 5.184-1.736 10.24-5.52 13.808-4.128 3.448-9.392 5.2-14.752 4.912-5.296 0.28-10.52-1.192-14.88-4.2-5.744-3.32-7.688-10.656-4.36-16.4 1.040-1.808 2.552-3.304 4.36-4.36 6.512-4.216 13.64-7.416 21.12-9.48 8.624-2.608 16.944-6.112 24.84-10.44 14.6-6.864 23.952-21.536 24-37.688 0.424-11.792-4.952-23.040-14.416-30.12-11.648-7.872-25.544-11.696-39.584-10.92-11.048-0.168-22.008 2.016-32.168 6.368-8.816 3.56-16.368 9.656-21.712 17.512-4.928 7.608-7.48 16.496-7.32 25.56h35.28c-0.512-6.368 1.712-12.648 6.12-17.288 5.664-4.176 12.656-6.152 19.688-5.504 4.872-0.28 9.712 1.016 13.792 3.72 3.496 2.304 5.536 6.256 5.392 10.44zM238.632 543.76c0-25.979-21.061-47.040-47.040-47.040s-47.040 21.061-47.040 47.040c0 25.979 21.061 47.040 47.040 47.040s47.040-21.061 47.040-47.040zM314.6 678.88c0-25.979-21.061-47.040-47.040-47.040s-47.040 21.061-47.040 47.040c0 25.979 21.061 47.040 47.040 47.040s47.040-21.061 47.040-47.040zM238.16 388.84c0-25.979-21.061-47.040-47.040-47.040s-47.040 21.061-47.040 47.040c0 25.979 21.061 47.040 47.040 47.040s47.040-21.061 47.040-47.040z" />
<glyph unicode="&#xe912;" glyph-name="cloud-endpoints" d="M692.488 448.12l-34.328 34.32h-292.328l-34.32-34.32 34.32-34.312v0.112l292.328-0.112zM314.96 338.808l-109.2 109.192 109.080 109.080c5.104 5.112 5.104 13.376 0 18.488l-30.12 30.112c-5.096 5.016-13.264 5.016-18.36 0l-148.68-148.44c-5.096-5.104-5.096-13.384 0-18.48l148.44-148.456c5.112-5.088 13.376-5.088 18.48 0l30.128 30.128c5.104 5.104 5.104 13.376 0 18.488zM709.040 557.080l109.192-109.192-109.072-109.080c-5.088-5.112-5.088-13.384 0-18.496l30.12-30.12c5.112-5.088 13.384-5.088 18.496 0l148.432 148.568c5.112 5.096 5.112 13.376 0 18.48l-148.44 148.44c-5.112 5.096-13.384 5.096-18.496 0l-30.12-30.12c-5.088-5.112-5.088-13.376 0-18.488z" />
<glyph unicode="&#xe913;" glyph-name="cloud-external-ip-addresses" d="M676.768 436v-200.88c0-6.632-5.376-12-12-12h-365.888c-6.632 0-12 5.368-12 12v365.88c0 6.624 5.368 12 12 12h201.12c6.624 0 12 5.376 12 12v51c0 6.624-5.376 12-12 12h-276c-6.624 0-12-5.376-12-12v-516c0-6.632 5.376-12 12-12h516c6.632 0 12 5.368 12 12v276c0 6.624-5.368 12-12 12h-51.232c-6.632 0-12-5.376-12-12zM572 736v-216c0-6.624 5.368-12 12-12h216c6.632 0 12 5.376 12 12v216c0 6.624-5.368 12-12 12h-216c-6.632 0-12-5.376-12-12zM740 613h-51.232c-6.632 0-12 5.376-12 12v51c0 6.624 5.368 12 12 12h51.232c6.632 0 12-5.376 12-12v-51c0-6.624-5.368-12-12-12z" />
<glyph unicode="&#xe914;" glyph-name="cloud-firewall-rules" d="M211.88 747.88h266.52v-66.72h-266.52v66.72zM211.88 214.84h266.52v-66.728h-266.52v66.728zM211.88 481.36h266.52v-66.72h-266.52v66.72zM545.12 747.88h266.528v-66.72h-266.528v66.72zM545.12 214.84h266.528v-66.728h-266.528v66.728zM545.12 481.36h266.528v-66.72h-266.528v66.72zM378.44 614.68h266.52v-66.72h-266.52v66.72zM378.44 348.040h266.52v-66.728h-266.52v66.728zM211.88 614.68h99.952v-66.72h-99.952v66.72zM211.88 348.040h99.952v-66.728h-99.952v66.728zM711.688 614.68h99.96v-66.72h-99.96v66.72zM711.688 348.040h99.96v-66.728h-99.96v66.728z" />
<glyph unicode="&#xe915;" glyph-name="cloud-functions" d="M279.080 141.272l63.48 63.496-95.152 95.152v296.16l95.152 95.16-63.48 63.48-127.080-127.080v-359.288zM422.36 448c0-24.853-20.147-45-45-45s-45 20.147-45 45c0 24.853 20.147 45 45 45s45-20.147 45-45zM557 448c0-24.853-20.147-45-45-45s-45 20.147-45 45c0 24.853 20.147 45 45 45s45-20.147 45-45zM691.648 448c0-24.853-20.147-45-45-45s-45 20.147-45 45c0 24.853 20.147 45 45 45s45-20.147 45-45zM744.312 754.72l-63.472-63.48 95.16-95.16v-296.16l-95.16-95.152 63.472-63.496 127.096 127.080v359.288z" />
<glyph unicode="&#xe916;" glyph-name="cloud-iam" d="M512 811.24l-300-133.32v-200.040c0-185.040 128.040-357.96 300-399.96 171.96 42 300 215.040 300 399.96v200.040l-300 133.32zM512 670c53.016 0 96-42.976 96-96s-42.984-96-96-96c-53.024 0-96 42.976-96 96s42.976 96 96 96zM692 273.040c0-2.392-0.704-4.736-2.040-6.728-2.16-3.232-4.312-6.584-6.728-9.72-42.352-58.296-102.416-101.352-171.232-122.752-68.736 21.232-128.784 64.080-171.24 122.16-2.4 3.12-4.552 6.488-6.72 9.728-1.336 1.976-2.048 4.312-2.040 6.712v53.872c0 73.568 120 110.648 180 110.648s180-36.96 180-110.648v-53.272z" />
<glyph unicode="&#xe917;" glyph-name="cloud-interconnect" d="M698 484h162v-72h-162v72zM644 676h72v-456h-72v456zM140 484h144v-72h-144v72zM356 748h348c6.632 0 12-5.376 12-12v0-60h-372v60c0 6.624 5.376 12 12 12zM344 220h372v-60c0-6.632-5.368-12-12-12h-348c-6.624 0-12 5.368-12 12v0 60zM282.68 592h266.632c5.904 0 10.688-4.784 10.688-10.68v-266.632c0-5.904-4.784-10.688-10.688-10.688h-266.632c-5.896 0-10.68 4.784-10.68 10.688v266.632c0 5.896 4.784 10.68 10.68 10.68z" />
<glyph unicode="&#xe918;" glyph-name="cloud-iot-core" d="M529.512 245.312v187.92h-36v-187.92c-37.68-9.936-60.16-48.536-50.216-86.216 9.936-37.672 48.536-60.168 86.216-50.216 37.68 9.936 60.168 48.544 50.232 86.216-6.48 24.552-25.664 43.744-50.232 50.216zM511.040 142.592c-19.024 0-34.448 15.424-34.448 34.448s15.424 34.448 34.448 34.448 34.448-15.424 34.448-34.448-15.424-34.448-34.448-34.448v0zM710 333.272v99.608h-36v-99.728c-37.688-9.936-60.168-48.536-50.224-86.224 9.936-37.68 48.536-60.168 86.224-50.224 37.688 9.952 60.168 48.544 50.224 86.224-6.48 24.56-25.664 43.76-50.224 50.224v0.12zM692 230.56c-19.016 0-34.44 15.424-34.44 34.44s15.424 34.44 34.44 34.44 34.44-15.424 34.44-34.44-15.424-34.44-34.44-34.44v0zM349.76 332.080v100.92h-36v-99.84c-37.68-9.936-60.168-48.536-50.224-86.224 9.944-37.68 48.544-60.168 86.224-50.224 31.008 8.176 52.584 36.232 52.56 68.296 0.208 31.848-21.576 59.648-52.56 67.072zM332 230.56c-19.016 0-34.44 15.424-34.44 34.44s15.424 34.44 34.44 34.44 34.44-15.424 34.44-34.44-15.424-34.44-34.44-34.44v0zM718.512 694.592c-14.16 0-28.224-2.312-41.632-6.832-41.944 89.176-148.24 127.48-237.416 85.528-38.392-18.048-69.080-49.176-86.584-87.808-67.008 26.816-143.072-5.76-169.88-72.76-26.832-67.008 5.752-143.072 72.752-169.888 15.624-6.248 32.304-9.432 49.136-9.352h8.28v96c-19.040 9.936-26.416 33.424-16.472 52.464 9.944 19.032 33.432 26.4 52.472 16.464 19.032-9.944 26.4-33.432 16.464-52.464-3.68-7.040-9.424-12.792-16.464-16.464v-96.72h323.992v96c-19.032 9.944-26.408 33.432-16.456 52.472 9.936 19.032 33.424 26.4 52.456 16.464s26.416-33.432 16.472-52.464c-3.672-7.048-9.424-12.792-16.472-16.472v-95.992h8.528c72.168 0.024 130.64 58.56 130.616 130.736-0.040 72.128-58.496 130.584-130.616 130.616l0.824 0.472zM529.512 584.44v-151.2h-36v151.2c-19.032 9.936-26.4 33.432-16.464 52.464 9.944 19.040 33.432 26.416 52.464 16.472s26.408-33.432 16.472-52.472c-3.68-7.048-9.424-12.784-16.472-16.464z" />
<glyph unicode="&#xe919;" glyph-name="cloud-jobs-api" d="M512 726.408c-153.76 0.064-278.456-124.528-278.512-278.288-0.072-153.752 124.512-278.448 278.272-278.528 153.76-0.056 278.464 124.528 278.512 278.288 0 0.040 0 0.080 0 0.12v0c0 153.712-124.568 278.328-278.272 278.408zM512 236.808c-116.64 0-211.2 94.544-211.2 211.192 0 116.64 94.56 211.2 211.2 211.2 116.648 0 211.192-94.56 211.192-211.2v0 0c0-116.648-94.544-211.192-211.192-211.192v0zM712.272 276.512l-28.792-28.792c-5.104-5.112-5.104-13.384 0-18.496l109.32-109.312c5.112-5.096 13.368-5.096 18.472 0l28.808 28.808c5.096 5.104 5.096 13.36 0 18.472l-109.432 109.456c-5.112 5.088-13.384 5.088-18.496 0zM399.080 520h225.84c10.528 0 19.080-8.544 19.080-19.080v-141.84c0-10.528-8.544-19.080-19.080-19.080h-225.84c-10.528 0-19.080 8.544-19.080 19.080v141.84c0 10.536 8.544 19.080 19.080 19.080zM560 556v-36h-96v36h96zM440 556v-72h144v72c0 13.248-10.752 24-24 24h-96c-13.248 0-24-10.752-24-24z" />
<glyph unicode="&#xe91a;" glyph-name="cloud-load-balancing" d="M488 580h48v-261h-48v261zM283.168 460h36.832v-156h-48v144.832c0 6.168 5 11.168 11.168 11.168v0zM704 460h36.84c6.168 0 11.16-5 11.16-11.168v0 0-144.832h-48v156zM284 484h456c6.632 0 12-5.376 12-12v-36h-480v36c0 6.624 5.376 12 12 12zM331.64 712h360.712c6.448 0 11.648-5.208 11.648-11.64v-120.72c0-6.432-5.2-11.64-11.648-11.64h-360.712c-6.432 0-11.64 5.208-11.64 11.64v120.72c0 6.432 5.208 11.64 11.64 11.64zM223.76 352h132.48c6.496 0 11.76-5.272 11.76-11.768v-96.472c0-6.488-5.264-11.76-11.76-11.76h-132.48c-6.496 0-11.76 5.272-11.76 11.768v96.464c0 6.496 5.264 11.768 11.76 11.768zM667.768 352h132.472c6.496 0 11.768-5.272 11.768-11.768v-96.472c0-6.496-5.272-11.768-11.768-11.768h-132.472c-6.496 0.008-11.768 5.28-11.768 11.776v96.464c0 6.496 5.272 11.768 11.768 11.768zM440.12 352h143.768c6.696 0 12.12-5.424 12.12-12.12v-95.768c0-6.696-5.424-12.12-12.12-12.12h-143.768c-6.696 0-12.12 5.424-12.12 12.12v95.768c0 6.696 5.424 12.12 12.12 12.12z" />
<glyph unicode="&#xe91b;" glyph-name="cloud-machine-learning" d="M703.16 328l35.032 60h135l34.808 60-90.488 156h-140.744l-40.808 72h-39.96v48h68.040l40.688-72h84.96l-83.528 144h-170.16v-204h72.232l27.96-48h-100.192v-96h91.192l41.536 72h111.832l27.712-48h-111.832l-41.632-72h-118.808v-180h149.88l-27.72-48h-122.16v-72h170.16l139.192 240h-79.544l-35.16-60h-134.648v48zM320.832 328l-35.032 60h-135l-34.8 60 90.488 156h140.752l40.8 72h39.96v48h-68.040l-40.68-72h-84.96l83.512 144h170.168v-204h-72.24l-27.96-48h100.2v-96h-91.2l-41.52 72h-111.84l-27.848-48h111.968l41.64-72h118.8v-180h-149.88l27.712-48h122.168v-72h-170.168l-139.192 240h79.56l35.16-60h134.64v48z" />
<glyph unicode="&#xe91c;" glyph-name="cloud-natural-language-api" d="M332 316h360v-96h-360v96zM332 496h360v-96h-360v96zM332 676h360v-96h-360v96zM776 808h-60v-96h60v-528h-60v-96h156v720zM152 808v-720h156v96h-60v528h60v96h-60z" />
<glyph unicode="&#xe91d;" glyph-name="cloud-network" d="M580.28 686.8c0-37.71-30.57-68.28-68.28-68.28s-68.28 30.57-68.28 68.28c0 37.71 30.57 68.28 68.28 68.28s68.28-30.57 68.28-68.28zM580.272 208.96c0-37.706-30.566-68.272-68.272-68.272s-68.272 30.566-68.272 68.272c0 37.706 30.566 68.272 68.272 68.272s68.272-30.566 68.272-68.272zM341.368 447.88c0-37.714-30.574-68.288-68.288-68.288s-68.288 30.574-68.288 68.288c0 37.714 30.574 68.288 68.288 68.288s68.288-30.574 68.288-68.288zM819.208 447.88c0-37.714-30.574-68.288-68.288-68.288s-68.288 30.574-68.288 68.288c0 37.714 30.574 68.288 68.288 68.288s68.288-30.574 68.288-68.288zM494.592 190.232l-282.104 279.728h479.864l-197.76 198.12 34.816 36.84 282.24-279.112h-480.008l197.768-198.728zM494.12 367h29.4v-161.88h-29.4v161.88zM494.12 690.76h29.4v-161.872h-29.4v161.872z" />
<glyph unicode="&#xe91e;" glyph-name="cloud-partner-interconnect" d="M788 484h162v-72h-162v72zM734 676h72v-456h-72v456zM74 484h144v-72h-144v72zM446.488 748h347.032c6.624 0 12-5.376 12-12v0-60h-372v60c-0.016 6.624 5.336 12.016 11.968 12.032 0.328 0.008 0.664-0.008 1-0.032zM434 220h372v-60c0-6.632-5.368-12-12-12h-347.512c-6.632 0-12 5.368-12 12v0l-0.488 60zM216.68 592h266.64c5.896 0 10.68-4.784 10.68-10.68v-266.632c0-5.904-4.784-10.688-10.68-10.688h-266.64c-5.896 0-10.68 4.784-10.68 10.688v266.632c0 5.896 4.784 10.68 10.68 10.68zM650 581.32v-266.632c0.424-5.472-3.656-10.24-9.12-10.688h-53.76c-5.464 0.448-9.536 5.216-9.12 10.688v266.632c-0.424 5.464 3.656 10.232 9.12 10.68h53.648c5.488-0.384 9.624-5.144 9.232-10.624 0-0.024 0-0.040 0-0.056z" />
<glyph unicode="&#xe91f;" glyph-name="cloud-pubsub" d="M738.312 652c30.56 17.608 69.584 7.12 87.2-23.424 17.608-30.552 7.112-69.592-23.432-87.192s-69.536-7.136-87.168 23.376c-17.64 30.536-7.184 69.584 23.344 87.208 0.032 0.016 0.040 0.016 0.056 0.032zM221.832 541.832c-30.52 17.64-40.976 56.688-23.352 87.216 17.64 30.52 56.688 40.976 87.216 23.352 30.512-17.624 40.968-56.64 23.376-87.168-17.608-30.544-56.64-41.040-87.184-23.432-0.016 0.024-0.032 0.032-0.056 0.032zM575.84 149.808c-0.072-35.256-28.712-63.8-63.96-63.728-35.256 0.072-63.792 28.712-63.72 63.96 0.064 35.208 28.624 63.728 63.832 63.728 35.248 0 63.84-28.592 63.84-63.84zM512 580.72c9.936-0.008 19.832-1.144 29.512-3.36v168.84h-59.032v-168.84c9.688 2.216 19.584 3.352 29.52 3.36zM638.84 408.88c-5.904-19.024-16.048-36.464-29.648-51l146.288-84 29.512 51.12-146.152 83.88zM385.168 408.88l-146.168-84 29.512-51.12 146.28 84c-13.616 14.584-23.744 32.056-29.624 51.12zM615.192 448c0-57-46.192-103.192-103.192-103.192-56.992 0-103.2 46.192-103.2 103.192 0 56.992 46.208 103.2 103.2 103.2v0c57 0 103.192-46.208 103.192-103.2zM213.2 369.16c38.776 22.44 88.4 9.184 110.832-29.592s9.184-88.408-29.6-110.84c-38.776-22.432-88.4-9.168-110.832 29.6-0.024 0.024-0.032 0.048-0.048 0.088-22.368 38.76-9.096 88.336 29.648 110.744zM729.688 228.768c-38.816 22.384-52.128 72-29.72 110.8 22.384 38.808 72 52.12 110.8 29.72 38.808-22.392 52.12-72 29.712-110.8 0-0.032-0.024-0.064-0.040-0.080-22.344-38.76-71.864-52.072-110.632-29.72-0.040 0.016-0.088 0.056-0.12 0.080zM593.12 746.2c0-44.808-36.32-81.128-81.12-81.128s-81.12 36.32-81.12 81.128c0 44.8 36.32 81.12 81.12 81.12s81.12-36.32 81.12-81.12v0z" />
<glyph unicode="&#xe920;" glyph-name="cloud-router" d="M772.040 373.728v-111.608l-185.88 185.88 185.88 185.88v-111.6h111.96v-148.688l-111.96 0.136zM251.488 522.512h-111.488v-148.792h111.592v-111.608l185.768 185.888-185.872 186v-111.488zM586.16 262.12v111.608h-148.8v-111.728h-111.6l186.24-186 185.648 186.12h-111.488zM586.16 634.12v-111.48h-148.8v111.24h-111.6l186.24 186.12 185.648-186.12-111.488 0.24z" />
<glyph unicode="&#xe921;" glyph-name="cloud-routes" d="M686.96 215.192h-129.84l-281.76 352.32h-81.48v115.208h132.48l281.872-352.312h78.728v91.184l178.688-148.672-178.688-148.92zM545.352 487.36l62.88 78.72h78.728v-91.2l178.688 148.8-178.688 148.808v-91.208h-129.84l-83.528-104.28zM339.44 409.12l-64.080-80.16h-81.48v-115.192h132.48l84.6 105.72z" />
<glyph unicode="&#xe922;" glyph-name="cloud-spanner" d="M745.88 344.688l87.712-50.648 6.968 93-105.368 60.84-68.384-44.392-108.368 62.512v124.56l73.56 37.56v121.68l-84 40.44v-101.28l-36-20.28-36 20.28v101.28l-84-40.44v-121.68l72.72-37.080v-125.040l-108-62.272-69.232 44.864-105.368-60.824 6.96-93 87.72 50.64 35.52-21 0.48-41.288-87.72-50.768 77.040-52.432 105.368 60.848-4.208 81.464 108.232 62.536 108-62.28-4.32-82.448 105.368-60.848 77.032 52.456-87.712 50.624 0.472 41.416z" />
<glyph unicode="&#xe923;" glyph-name="cloud-speech-api" d="M152 640h96v-384h-96v384zM776 640h96v-384h-96v384zM464 724h96v-552h-96v552zM308 592h96v-288h-96v288zM620 544h96v-192h-96v192z" />
<glyph unicode="&#xe924;" glyph-name="cloud-sql" d="M512 805.24l-240-138.6v-107.16l240-138.488 240 138.488v107.16l-240 138.6zM655.408 614.68v0l-143.408-82.68-143.28 82.68 143.28 82.808 143.408-82.808zM272 499v-107.16l240-138.608 240 138.608v107.16l-240-138.592zM272 336.512v-107.16l240-138.584 240 138.584v107.16l-240-138.592z" />
<glyph unicode="&#xe925;" glyph-name="cloud-storage" d="M760.408 612.76h-497.288c-8.080 0.264-14.84-6.072-15.112-14.152 0-0.128-0.008-0.248-0.008-0.368v-102.832c0-8.024 6.496-14.52 14.512-14.52h497.888c7.984 0.064 14.448 6.52 14.512 14.52v102.832c-0.064 7.992-6.52 14.456-14.504 14.52zM683.488 516.76c-16.448 0-29.76 13.328-29.76 29.76 0 16.44 13.312 29.768 29.76 29.768 16.44 0 29.752-13.328 29.752-29.768-0.008-16.432-13.32-29.76-29.752-29.76v0zM760.408 415.12h-497.288c-8.080 0.272-14.848-6.056-15.12-14.136-0.016-0.328-0.016-0.656 0-0.984v-102.84c0.064-7.992 6.528-14.456 14.512-14.504h497.888c7.984 0.056 14.448 6.512 14.512 14.504v103.44c-0.064 7.992-6.52 14.448-14.504 14.52zM683.488 319.12c-16.448 0-29.76 13.32-29.76 29.768 0 16.432 13.312 29.76 29.76 29.76 16.44 0 29.752-13.328 29.752-29.76-0.008-16.448-13.32-29.768-29.752-29.768v0z" />
<glyph unicode="&#xe926;" glyph-name="cloud-tools-for-visual-studio" d="M740 460l-103.688 179.28c-4.28 7.416-12.184 11.992-20.752 12h-207.12c-8.56-0.008-16.472-4.584-20.76-12l-103.68-179.28c-4.288-7.424-4.288-16.576 0-24l103.56-179.272c4.28-7.432 12.184-12 20.76-12h207.24c8.56 0 16.472 4.568 20.752 12l103.688 179.272c4.288 7.424 4.288 16.576 0 24zM512 359.92c-48.64 0-88.080 39.44-88.080 88.080s39.44 88.080 88.080 88.080 88.080-39.44 88.080-88.080v0c0-48.64-39.44-88.080-88.080-88.080zM864.808 440.688l-73.808-127.92c-4.048-7.080-1.576-16.104 5.504-20.144 2.2-1.256 4.688-1.92 7.224-1.936h44.272c5.232 0 10.080 2.792 12.728 7.312l82.312 142.56c2.632 4.56 2.632 10.184 0 14.76l-82.2 142.68c-2.672 4.56-7.568 7.352-12.84 7.32h-44.16c-8.16-0.056-14.72-6.704-14.672-14.848 0.024-2.536 0.688-5.024 1.944-7.224l73.688-127.92c2.584-4.544 2.584-10.112 0.008-14.64zM176 290.688h44.168c8.152 0.048 14.712 6.704 14.656 14.84-0.016 2.544-0.68 5.032-1.936 7.232l-73.68 127.92c-2.64 4.56-2.64 10.184 0 14.752l73.8 127.808c4.048 7.080 1.576 16.096-5.504 20.136-2.2 1.256-4.688 1.92-7.216 1.944h-44.288c-5.232-0.008-10.080-2.8-12.72-7.32l-82.448-142.68c-2.632-4.568-2.632-10.192 0-14.76l82.328-142.56c2.664-4.56 7.56-7.36 12.84-7.312z" />
<glyph unicode="&#xe927;" glyph-name="cloud-translation-api" d="M797 622.832h57.232l135.84-374.272h-55.56l-38.512 112.080h-147.488l-40.552-112.2h-51.96l141 374.392zM881 401.92l-57 165.36-60-165.36h117zM350.72 520h-54.72c-5.408-12-11.168-24-17.28-34.44-11.424-20.56-24.976-39.872-40.44-57.6-15.848 18.544-30.144 38.376-42.72 59.28-6.312 10.56-11.952 21.504-16.92 32.76h-52.92c7.32-12 15.6-34.080 24.72-50.168 15.472-26.896 33.088-52.496 52.68-76.56-21.992-19.152-45.696-36.256-70.8-51.12-30.272-17.704-62.488-31.872-96-42.232l27.12-45.12c33.040 12.472 64.92 27.808 95.28 45.84 27.952 16.616 54.424 35.648 79.080 56.864 11.656-10.696 24.048-20.56 37.088-29.512 13.6-9.352 27.92-18.28 42.952-26.768 15.040-8.472 30.408-16.48 46.088-24 16-7.192 31.6-13.512 46.8-18.96l26.64 48c-12.952 4.168-26.592 9-40.92 14.528-14.312 5.504-28.552 11.88-42.72 19.080-14.4 7.264-28.424 15.28-42 24-13.536 8.504-26.344 18.144-38.28 28.808 20.528 23.016 38.368 48.296 53.16 75.352 8.984 17.048 17.392 39.968 24.112 51.968zM665.352 430l-85.432 49.44v-38.52h-167.16v-24.84h167.16v-35.392zM258.56 589.36v74.28h-50.048v-74.28h-167.024v-43.32h389.872v43.32z" />
<glyph unicode="&#xe928;" glyph-name="cloud-video-intelligence-api" d="M668 700.24h-198.96l53.040-84h73.92v-48h-105.24l-83.76 132h-254.76v-156h71.76l45.36 84h92.64l30.72-48h-92.52l-45.368-84h-102.592v-93.008h102.592l45.368-87h92.52l-30.72-48h-92.64l-45.36 84h-71.76v-156h254.76l83.76 132h105.24v-48h-73.92l-53.040-84h198.96v228h-231l-29.64-48h-66.36l45.488 72.008-45.488 72h66.36l28.68-48h231.96zM871.88 660.408l-143.88-104.528v-219.72l143.88-106.080z" />
<glyph unicode="&#xe929;" glyph-name="cloud-vision-api" d="M512 718l-360-270 360-270 360 270-360 270zM287 448l225 157.44 225-157.44-225-157.56-225 157.56zM579.68 448c0-37.246-30.194-67.44-67.44-67.44s-67.44 30.194-67.44 67.44c0 37.246 30.194 67.44 67.44 67.44s67.44-30.194 67.44-67.44z" />
<glyph unicode="&#xe92a;" glyph-name="cloud-vpn" d="M589.768 478.24h182.272v-60.008h-182.272v60.008zM729.92 703.36h60v-510.48h-60v510.48zM670.040 214.592h179.88c6.632 0 12-5.36 12-12v-179.864c0-6.632-5.368-12-12-12h-179.88c-6.632 0-12 5.368-12 12v179.864c0 6.64 5.368 12 12 12zM670.040 882.88h179.88c6.632 0 12-5.376 12-12v-179.88c0-6.624-5.368-12-12-12h-179.88c-6.632 0-12 5.376-12 12v179.88c0 6.624 5.368 12 12 12zM251.592 478.24h186.608v-60.008h-186.608v60.008zM91.168 550.24h179.872c6.624 0 12-5.376 12-12v-179.88c0-6.624-5.376-12-12-12h-179.872c-6.632 0-12 5.376-12 12v179.88c0 6.624 5.36 12 12 12zM512 352c-53.024 0-96 42.984-96 96 0 53.024 42.976 96 96 96 53.016 0 96-42.976 96-96 0-53.016-42.984-96-96-96zM512 508c-33.136 0-60-26.864-60-60 0-33.144 26.864-60 60-60 33.144 0 60 26.856 60 60 0 33.136-26.856 60-60 60z" />
<glyph unicode="&#xe92b;" glyph-name="compute-engine" d="M581.96 530.8h-136.92c-7.992-0.064-14.456-6.52-14.52-14.512v-136.928c0-8.032 6.488-14.576 14.52-14.632h136.92c7.848 0.32 14.040 6.776 14.040 14.632v136.92c-0.072 7.992-6.528 14.456-14.512 14.512zM798.688 541.832c7.216-0.128 13.168 5.616 13.312 12.832 0 0.088 0 0.168 0 0.248v21.36c0 7.216-5.856 13.080-13.080 13.080h-66.84v62.648c-0.072 7.992-6.528 14.456-14.512 14.512h-62.528v66.488c0 7.224-5.856 13.080-13.080 13.080h-21.368c-7.032-0.256-12.592-6.032-12.592-13.080v-66.832h-70.808v66.832c0 7.224-5.856 13.080-13.080 13.080-0.040 0-0.072 0-0.12 0h-21.12c-7.224 0-13.088-5.848-13.088-13.080v0-66.832h-70.312v66.832c0 7.224-5.856 13.080-13.080 13.080v0h-21.352c-7.224 0-13.080-5.848-13.080-13.080v0-66.832h-62.4c-7.904 0-14.384-6.264-14.64-14.168v-62.28h-66.6c-7.224 0-13.080-5.848-13.080-13.080v0-21.36c0-7.224 5.848-13.080 13.080-13.080v0h66.6v-70.2h-66.6c-7.224 0-13.080-5.856-13.080-13.080v0-21.728c-0.072-7.216 5.736-13.128 12.96-13.192 0.040 0 0.080 0 0.12 0h66.6v-70.312h-66.6c-7.224 0-13.080-5.856-13.080-13.096v-21.36c0-7.216 5.848-13.080 13.080-13.080h66.6v-62.16c0.064-7.992 6.528-14.464 14.512-14.512h62.52v-66.832c0-7.224 5.848-13.088 13.080-13.088h21.368c7.216 0 13.080 5.856 13.080 13.088v66.832h70.312v-66.832c0-7.224 5.856-13.088 13.088-13.088h21.12c7.216 0 13.080 5.856 13.080 13.088v66.832h70.92v-66.832c0-7.224 5.856-13.088 13.080-13.088h21.36c7.232 0 13.080 5.856 13.080 13.088v66.832h62.52c7.808 0.312 13.976 6.712 14.040 14.512v62.272h66.608c7.216-0.136 13.168 5.624 13.312 12.84 0 0.088 0 0.168 0 0.232v21.376c0 7.216-5.856 13.080-13.080 13.080h-66.84v70.208h66.608c7.216-0.144 13.168 5.608 13.312 12.84 0 0.12 0 0.232 0 0.352v21.24c0.256 7.216-5.368 13.288-12.584 13.552-0.248 0.016-0.496 0.024-0.728 0.016h-66.608v69.832h66.608zM682.88 277.84h-338.88v339.36h338.88v-339.36z" />
<glyph unicode="&#xe92c;" glyph-name="container-builder" d="M512.488 293.688l133.072 76.8v153.592l-44.752 25.8-133.088-230.392zM379.408 524.080v-153.592l44.76-25.8 133.064 230.392-44.744 25.8zM486.32 248.080l-159.488 92.040v183.96l-141.832 81.96v-347.88l301.32-174zM352.88 569.44l159.608 92.152 159.592-92.152 141.96 81.84-301.552 174.128-301.568-174.128zM698 524.080v-183.96l-159.352-92.040v-163.92l301.312 174v347.76z" />
<glyph unicode="&#xe92d;" glyph-name="container-engine" d="M812 640l-283.808 164.168c-10.032 5.736-22.36 5.736-32.4 0l-283.792-164.168c-10.032-5.792-16.2-16.496-16.2-28.080v-327.96c0.016-11.552 6.184-22.208 16.2-27.96l283.8-164.16c10.032-5.792 22.376-5.792 32.4 0l283.8 164.16c10.056 5.768 16.232 16.488 16.192 28.080v327.84c0.008 11.584-6.16 22.288-16.192 28.080zM773.352 315.408l-99.12 57.232v150.72l-146.392-84v-169.552l130.56 75.352 99.112-57.232-245.512-141.736-245.512 141.728 99.112 57.232 130.568-75.352v169.080l-146.408 84v-150.24l-99.12-57.232v283.424l245.52 141.728v-114.36l-130.568-75.48 146.408-84 146.408 84-130.56 75.488v114.352l245.504-141.728v-283.424z" />
<glyph unicode="&#xe92e;" glyph-name="container-optimized-os" d="M512 810.88c-202.272 0-366.24-163.976-366.24-366.24s163.968-366.232 366.24-366.232c202.264 0 366.232 163.968 366.232 366.232v0 0c0 202.264-163.968 366.24-366.232 366.24zM512 150.88c-54.064 0-107.072 14.992-153.12 43.312l131.28 75.84v164.656l-142.672 82.672v-165.36l100.68-58.192-126.728-73.216c-123.52 105.088-138.472 290.408-33.392 413.936 22.656 26.632 49.896 49.008 80.44 66.064v-146.872l143.512-82.552 142.92 82.552-142.92 82.56-100.92-58.2v142.2c151.712 56.728 320.696-20.264 377.424-171.984 12.44-33.256 18.744-68.496 18.576-104.016 0-0.84 0-1.688 0-2.64l-131.64 75.72-142.928-82.552v-165.12l142.928 82.312v116.76l126.248-72.952c-23.744-141.52-146.2-245.208-289.688-245.296v0.368z" />
<glyph unicode="&#xe92f;" glyph-name="container-registry" d="M416 536.44l96-55.44 96 55.44v111l-96 55.56-96-55.56zM548 310l96-55.56 96 55.56v111l-96 55.44-96-55.44zM284 307l96-55.56 96 55.56v111l-96 55.44-96-55.44zM296 682.72l-96-55.44v-358.552l96-55.456v-85.080l-168 97.080v445.448l168 97.080zM728 682.72l96-55.44v-358.552l-96-55.456v-85.080l168 97.080v445.448l-168 97.080z" />
<glyph unicode="&#xe930;" glyph-name="data-loss-prevention-api" d="M647.728 715.592c-106.76 67.096-246.488 46.184-328.928-49.184-41.032-46.24-63.216-106.2-62.16-168 0.952-89.048 40.56-158.408 111.952-210.968l-7.912-13.088-26.4-7.192c-41.4-72.72-56.4-93-96-162.12l68.76-39.728c39.84 69.96 54.84 90.248 96 162.376l-7.552 28.312 6.72 12c128.184-59.44 280.28-3.728 339.736 124.472 53.84 116.104 13.592 254.152-94.216 323.12zM558.192 328.728c-94.256-25.64-191.456 30.008-217.080 124.272-25.632 94.272 30.016 191.472 124.28 217.096 94.272 25.624 191.472-30.024 217.088-124.288 0.016-0.040 0.024-0.088 0.032-0.128v0-0.6c25.024-94.016-30.472-190.624-124.32-216.352zM51.080 559.832l5.64 50.048h55.2v-16.32h-39.24l-2.4-21.128c4.528 2.456 9.608 3.736 14.76 3.728 8.288 0.44 16.352-2.76 22.080-8.76 5.552-6.736 8.384-15.296 7.92-24 0.104-5.928-1.256-11.784-3.96-17.048-2.688-5.128-6.864-9.312-12-12-5.464-2.904-11.576-4.352-17.76-4.192-5.72-0.056-11.384 1.176-16.56 3.592-4.848 2.24-9 5.776-12 10.2-2.96 4.448-4.592 9.656-4.68 15h19.92c0.168-3.632 1.72-7.064 4.32-9.6 2.64-2.32 6.088-3.528 9.6-3.36 3.984-0.2 7.816 1.608 10.192 4.8 2.52 3.92 3.744 8.544 3.48 13.2 0.496 4.624-0.792 9.256-3.592 12.96-3.152 3.176-7.536 4.808-12 4.448-4.072 0.184-8.080-1.088-11.28-3.608l-1.92-1.792-15.72 3.832zM209.488 511.488h-19.568v75.232l-23.28-7.2v15.84l40.8 14.64h2.048v-98.512zM95.592 379.12h-19.552v75.368l-23.28-7.2v15.832l40.808 14.64h2.032v-98.64zM228.32 419.808c0.744-11.056-2.208-22.032-8.4-31.208-12.664-13.744-34.072-14.624-47.824-1.968-0.056 0.064-0.12 0.128-0.176 0.176l-1.44 1.192c-6.288 8.872-9.384 19.616-8.768 30.488v18.48c-0.784 11.104 2.216 22.144 8.52 31.32 12.728 13.68 34.144 14.456 47.824 1.72 0.064-0.048 0.12-0.104 0.176-0.168l1.44-1.432c6.264-8.84 9.352-19.544 8.76-30.368l-0.112-18.232zM208.76 439.728c0.432 6.144-0.728 12.296-3.352 17.864-2.144 3.712-6.176 5.896-10.448 5.648-4.12 0.256-8.040-1.776-10.2-5.28-2.544-5.136-3.744-10.832-3.48-16.552v-24c-0.392-6.136 0.72-12.272 3.232-17.888 2.064-3.848 6.192-6.152 10.56-5.864 4.24-0.272 8.248 1.92 10.328 5.624 2.472 5.384 3.624 11.256 3.352 17.168v23.28zM846.92 515.32h-19.44v75.36l-23.288-7.192v15.832l40.808 14.64h2.040l-0.12-98.64zM916.272 563.8l5.648 50.040h55.192v-16.32h-39.12l-2.408-21.112c4.536 2.448 9.608 3.72 14.76 3.712 8.296 0.448 16.36-2.76 22.088-8.76 5.56-6.72 8.384-15.288 7.912-24 0.12-5.92-1.24-11.776-3.944-17.040-2.688-5.136-6.88-9.312-12-12-5.472-2.896-11.576-4.352-17.76-4.2-5.728-0.048-11.392 1.176-16.568 3.6-4.848 2.248-9 5.776-12 10.2-2.968 4.448-4.592 9.648-4.672 15h19.792c0.184-3.632 1.728-7.064 4.32-9.6 2.64-2.32 6.088-3.528 9.6-3.36 3.984-0.192 7.808 1.6 10.192 4.8 2.624 3.976 3.888 8.696 3.608 13.448 0.328 4.64-1.128 9.232-4.080 12.832-3.16 3.176-7.544 4.816-12 4.448-4.080 0.192-8.088-1.080-11.28-3.6l-1.912-1.808-15.368 3.72zM865.768 419.808c0.736-11.056-2.216-22.032-8.416-31.208-12.656-13.744-34.056-14.624-47.816-1.968-0.056 0.064-0.12 0.128-0.184 0.176l-1.432 1.192c-6.296 8.872-9.376 19.616-8.768 30.488v18.48c-0.776 11.104 2.224 22.144 8.528 31.32 12.728 13.68 34.144 14.456 47.816 1.72 0.072-0.048 0.12-0.104 0.184-0.168l1.432-1.432c6.256-8.84 9.352-19.544 8.768-30.368l-0.112-18.232zM846.192 439.728c0.432 6.144-0.728 12.296-3.352 17.864-2.136 3.712-6.168 5.896-10.44 5.648-4.12 0.256-8.048-1.776-10.208-5.28-2.536-5.136-3.752-10.832-3.472-16.552v-24c-0.4-6.136 0.712-12.272 3.232-17.888 2.064-3.848 6.184-6.152 10.552-5.864 4.232-0.272 8.248 1.92 10.328 5.624 2.472 5.384 3.632 11.256 3.352 17.168v23.28zM916.272 427.488l5.648 50.032h55.192v-16.312h-39.12l-2.408-21.128c4.536 2.456 9.608 3.728 14.76 3.72 8.296 0.44 16.36-2.76 22.088-8.76 5.56-6.728 8.384-15.28 7.912-24 0.12-5.912-1.24-11.768-3.944-17.040-2.688-5.136-6.88-9.312-12-12-5.472-2.904-11.576-4.344-17.76-4.192-5.728-0.056-11.392 1.168-16.568 3.6-4.848 2.248-9 5.776-12 10.184-2.968 4.448-4.592 9.656-4.672 15h19.792c0.184-3.616 1.728-7.048 4.32-9.592 2.656-2.32 6.088-3.512 9.6-3.36 3.984-0.2 7.808 1.6 10.192 4.8 2.624 3.976 3.888 8.688 3.608 13.448 0.328 4.64-1.128 9.232-4.080 12.84-3.16 3.176-7.544 4.808-12 4.432-4.080 0.2-8.088-1.080-11.28-3.592l-1.552-1.568-15.728 3.488zM408.68 405.16c0 14.88 0 29.408 0 43.808 0.864 11.4 6.696 21.848 15.96 28.552 11.648 9.272 25.032 16.128 39.36 20.168 37.632 12.744 78.984 8.040 112.808-12.84 4.312-2.68 8.344-5.824 12-9.352 9.984-8.696 15.232-21.608 14.16-34.8 0-12 0-23.28 0-35.416l-194.288-0.12zM505.64 526.488c-27.704 0-50.16 22.456-50.16 50.16s22.456 50.16 50.16 50.16c27.712 0 50.168-22.456 50.168-50.16 0-0.040 0-0.080 0-0.128v0 0c-0.072-27.664-22.512-50.032-50.168-50.032z" />
<glyph unicode="&#xe931;" glyph-name="data-studio" d="M769.16 755.32h-142.672v-200.4c0.384-58.272-22.256-114.344-63-156-41.152-42.264-97.736-65.968-156.728-65.648h-201.72v-144c0.264-27.12 22.184-49.056 49.32-49.312h252c172.912 0 311.992 132 311.992 309.96v256.080c-0.256 27.080-22.104 49-49.192 49.32zM205.040 706v-336h201.72c49.32-0.28 96.632 19.512 131.048 54.84 34.032 34.816 53.008 81.624 52.792 130.32v200.16h-336c-27.224-0.136-49.296-22.104-49.56-49.32z" />
<glyph unicode="&#xe932;" glyph-name="data-transfer-appliance" d="M848 649.72h-459.96c-6.624 0-12-5.376-12-12v-80.28c0-6.624 5.376-12 12-12h459.96c6.632 0 12 5.376 12 12v80.16c0.072 6.632-5.248 12.064-11.88 12.128-0.040-0.008-0.072-0.008-0.12-0.008zM433.64 570.28c-14.448 0-26.16 11.712-26.16 26.16 0 14.456 11.712 26.16 26.16 26.16s26.16-11.704 26.16-26.16v0c0-14.448-11.712-26.16-26.16-26.16v0zM848 499.72h-459.96c-6.624 0-12-5.376-12-12v-79.8c0-6.632 5.376-12 12-12h459.96c6.632 0 12 5.368 12 12v79.912c-0.072 6.592-5.416 11.888-12 11.888zM433.64 419.92c-14.448 0-26.16 11.72-26.16 26.16 0 14.456 11.712 26.168 26.16 26.168s26.16-11.712 26.16-26.168v0c0-14.44-11.712-26.16-26.16-26.16v0zM849.688 350.44h-459.488c-6.624 0-12-5.376-12-12v-80.28c0-6.624 5.376-12 12-12h459.488c6.624 0 12 5.376 12 12v80.4c-0.072 6.576-5.424 11.88-12 11.88zM435.68 271.488c-14.448 0-26.168 11.704-26.168 26.168 0 14.44 11.72 26.16 26.168 26.16s26.16-11.72 26.16-26.16c-0.008-14.472-11.712-26.168-26.16-26.168v0zM294.32 527.44h-79.44c-16.568-2.104-31.704 9.632-33.808 26.2-2.104 16.56 9.624 31.696 26.2 33.8 2.52 0.32 5.080 0.32 7.6 0h79.44c16.568 2.104 31.704-9.624 33.808-26.192s-9.632-31.704-26.2-33.808c-2.52-0.32-5.080-0.32-7.6 0zM294.32 418h-142.32c-16.568-2.096-31.704 9.632-33.808 26.192-2.096 16.568 9.632 31.712 26.192 33.808 2.528 0.32 5.088 0.32 7.608 0h142.32c16.568 2.096 31.704-9.624 33.808-26.192 2.104-16.576-9.632-31.712-26.2-33.808-2.52-0.328-5.080-0.328-7.6 0zM294.32 308.44h-79.44c-16.568-2.096-31.704 9.624-33.808 26.192s9.624 31.712 26.2 33.808c2.52 0.32 5.080 0.32 7.6 0h79.44c16.568 2.104 31.704-9.624 33.808-26.184 2.104-16.568-9.632-31.712-26.2-33.816-2.52-0.312-5.080-0.312-7.6 0z" />
<glyph unicode="&#xe933;" glyph-name="debugger" d="M230.72 576.88h78v73.2h73.080v78h-151.080zM467 497.8h232.688l-232.688-394.68zM557 398.192h-236.28l236.28 394.688zM793.272 728.080h-151.080v-78h73.080v-73.2h78zM230.72 164.312h151.080v79.2h-73.080v71.896h-78zM793.272 315.408h-78v-71.896h-73.080v-79.2h151.080z" />
<glyph unicode="&#xe934;" glyph-name="error-reporting" d="M376.76 184l-128.76 128.88v270l128.76 129.12h45l90.24 96h-180l-180-180v-360l180-180h180l-90 96h-45.24zM691.648 807.76h-89.88l-90.008-96h135.008l128.88-128.88v-270l-128.88-128.88h-135.008l90.008-96h89.88l180 180v359.88zM512 268l-90 90 90 90-90 90 90 90h-90l-90-90.12v-180l90-90 90 0.12zM601.768 627.88l-90.008-90 90.12-90.12-90-89.992 89.888-89.768 89.88 89.88v180z" />
<glyph unicode="&#xe935;" glyph-name="generic-gcp" d="M605.12 447.040c0-52.544-42.608-95.16-95.16-95.16s-95.168 42.608-95.168 95.16c0 52.552 42.608 95.168 95.168 95.168 52.544-0.008 95.16-42.616 95.16-95.168v0 0zM862.272 472l-71.272 123.72h-145.312l85.080-147.72-22.92-39.96-86.536-150.728-26.752-46.432-46.56-80.4h118.080c17.040 0.104 32.768 9.232 41.272 24l154.92 269.52c8.344 14.696 8.344 32.704 0 47.408zM402.2 257.312l-109.44 190.688-72.72 125.88-58.8-101.88c-8.344-14.696-8.344-32.696 0-47.408l154.68-270.24c8.512-14.76 24.232-23.88 41.28-24h141.96l72.832 126.96h-169.792zM766.768 637.96l-59.040 102.96c-8.528 14.76-24.232 23.888-41.288 24h-309.36c-17.048-0.112-32.752-9.24-41.28-24l-71.632-124.92 72.832-126.12 85.2 148.080h364.568z" />
<glyph unicode="&#xe936;" glyph-name="genomics" d="M379.408 558.512h191.032l22.208 22.080-22.208 22.208h-191.032zM390.92 580.72c0-20.412-16.548-36.96-36.96-36.96s-36.96 16.548-36.96 36.96c0 20.412 16.548 36.96 36.96 36.96s36.96-16.548 36.96-36.96zM718.040 580.72c0-26.51-21.49-48-48-48s-48 21.49-48 48c0 26.51 21.49 48 48 48s48-21.49 48-48zM432.8 315.272l22.2-22.192h188.272v44.28h-188.272zM403.76 315.272c0-26.51-21.49-48-48-48s-48 21.49-48 48c0 26.51 21.49 48 48 48s48-21.49 48-48zM706.040 315.272c0-20.412-16.548-36.96-36.96-36.96s-36.96 16.548-36.96 36.96c0 20.412 16.548 36.96 36.96 36.96s36.96-16.548 36.96-36.96zM284.488 720.76h380.512l22.080 22.072-22.080 22.088-380.512 0.12zM296.352 742.84c0-20.346-16.494-36.84-36.84-36.84s-36.84 16.494-36.84 36.84c0 20.346 16.494 36.84 36.84 36.84s36.84-16.494 36.84-36.84zM812.592 742.832c0-26.51-21.49-48-48-48s-48 21.49-48 48c0 26.51 21.49 48 48 48s48-21.49 48-48zM335.832 153.16l22.208-22.2h380.88v44.272h-380.88zM307.168 153.16c0-26.51-21.49-48-48-48s-48 21.49-48 48c0 26.51 21.49 48 48 48s48-21.49 48-48zM801.688 153.16c0-20.412-16.548-36.96-36.96-36.96s-36.96 16.548-36.96 36.96c0 20.412 16.548 36.96 36.96 36.96s36.96-16.548 36.96-36.96zM560 448c0-26.51-21.49-48-48-48s-48 21.49-48 48c0 26.51 21.49 48 48 48s48-21.49 48-48z" />
<glyph unicode="&#xe937;" glyph-name="google-plugin-for-eclipse" d="M605.12 447.040c0-52.544-42.608-95.16-95.16-95.16s-95.168 42.608-95.168 95.16c0 52.552 42.608 95.168 95.168 95.168 52.544-0.008 95.16-42.616 95.16-95.168v0 0zM862.272 472l-71.272 123.72h-145.312l85.080-147.72-22.92-39.96-86.536-150.728-26.752-46.432-46.56-80.4h118.080c17.040 0.104 32.768 9.232 41.272 24l154.92 269.52c8.344 14.696 8.344 32.704 0 47.408zM402.2 257.312l-109.44 190.688-72.72 125.88-58.8-101.88c-8.344-14.696-8.344-32.696 0-47.408l154.68-270.24c8.512-14.76 24.232-23.88 41.28-24h141.96l72.832 126.96h-169.792zM766.768 637.96l-59.040 102.96c-8.528 14.76-24.232 23.888-41.288 24h-309.36c-17.048-0.112-32.752-9.24-41.28-24l-71.632-124.92 72.832-126.12 85.2 148.080h364.568z" />
<glyph unicode="&#xe938;" glyph-name="gpu" d="M670.16 622.488h1.688c6.824-1.4 12.168-6.736 13.56-13.56v-314.272c-1.4-6.84-6.744-12.168-13.56-13.568h-313.928c-6.936 1.248-12.432 6.56-13.92 13.44v314.032c1.392 6.832 6.736 12.16 13.56 13.552h312zM683.96 762.64h-66.84v-74.64h-61.080v75h-68.040v-75h-75.24v75h-67.56v-76.68c-32.832-6.536-58.504-32.2-65.040-65.040h-83.16v-67.448h81.592v-75.832h-81.592v-67.44h81.592v-61.080h-81.592v-67.448h83.168c6.528-32.832 32.2-58.496 65.040-65.040v-84h67.44v82.32h75.352v-82.192h67.44v82.192h61.080v-82.192h67.448v84c32.832 6.536 58.496 32.2 65.040 65.040h77.408v67.2h-75.136v61.080h75.728v67.56h-75.728v75.72h75.728v67.56h-77.408c-6.52 32.832-32.2 58.496-65.032 65.040l-0.608 76.32zM538.272 589.96v-113.88h62.416l-111.248-154.568v115.216h-65.76z" />
<glyph unicode="&#xe939;" glyph-name="identity-aware-proxy" d="M480.44 658.24c-118.632 0-214.8-96.168-214.8-214.808 0-118.624 96.168-214.792 214.8-214.792s214.8 96.168 214.8 214.792v0c-0.008 118.64-96.168 214.808-214.8 214.808v0zM480.44 275.808c-92.784 0-168 75.208-168 167.992s75.216 168 168 168 168-75.216 168-168v0c0-92.784-75.224-167.992-168-167.992zM561.312 418c-3.656 3.472-7.672 6.512-12 9.12-32.984 20.152-73.232 24.544-109.8 12-13.728-4.024-26.528-10.712-37.68-19.68-9.024-6.496-14.728-16.624-15.592-27.712 0-14.040 0-28.080 0-42.608h188.64c0 12 0 23.16 0 34.448 1.288 12.984-3.752 25.808-13.568 34.432zM480.2 467.8c26.904 0.144 48.6 22.064 48.472 48.968s-22.056 48.608-48.96 48.48-48.608-22.064-48.48-48.968c0-0.16 0.008-0.32 0.008-0.48 0.392-26.72 22.24-48.136 48.96-48zM856.408 501.76h-43.816l32.528-32.52h-93.24v-37.928h93.24l-32.528-32.504h43.816l51.472 51.472zM720.192 595.24l26.888-26.88 41.040 41.048v-45.968l30.96 30.968v72.832h-72.848l-30.96-30.96h45.96zM788.12 286.592l-41.040 41.056-26.888-26.88 41.040-41.040h-45.96l30.96-30.96h72.848v72.824l-30.96 30.968zM122.488 505c-31.488 0-57-25.512-57-57 0-31.48 25.512-57 57-57 31.48 0 57 25.52 57 57 0 31.488-25.528 57-57 57v0zM122.488 416.44c-17.504 0-31.688 14.184-31.688 31.68 0 17.504 14.184 31.68 31.688 31.68 17.496 0 31.68-14.184 31.68-31.68 0-0.040 0-0.080 0-0.12 0-17.504-14.184-31.688-31.68-31.688v0.128z" />
<glyph unicode="&#xe93a;" glyph-name="key-management-service" d="M512 430.84c-58.128-0.072-105.296 46.992-105.36 105.12-0.072 58.12 47 105.288 105.12 105.36 58.136 0.064 105.288-47 105.36-105.12v0c0-58.088-47.016-105.232-105.12-105.36zM512 586.832c-27.968 0-50.64-22.664-50.64-50.632s22.672-50.64 50.64-50.64c27.96 0 50.648 22.672 50.648 50.64v0c-0.144 27.888-22.76 50.456-50.648 50.512v0.12zM512 0.408l-6.488 1.552c-194.392 47.272-341.512 242.040-341.512 453.36v231l348 154.56 347.272-154.56v-231.12c0-210.848-146.504-405.848-340.792-453.24l-6.48-1.552zM219.2 651.040v-195.72c0-184.2 125.392-354.36 292.8-398.76 168 44.4 292.808 214.552 292.808 398.76v195.72l-292.808 130.2-292.8-130.2zM484.76 464.56h54.48v-265.56h-54.48v265.56zM401.36 370.728h98.88v-54.496h-98.88v54.496zM437.488 292.728h82.32v-54.496h-82.32v54.496z" />
<glyph unicode="&#xe93b;" glyph-name="logging" d="M428 760h444v-132h-444v132zM248 448h192v-36h-192v36zM428 496h444v-132h-444v132zM248 184h192v-36h-192v36zM224 616h36v-468h-36v468zM152 796h180v-180h-180v180zM428 232h444v-132h-444v132z" />
<glyph unicode="&#xe93c;" glyph-name="monitoring" d="M634.408 144.408h-242.408c-6.624 0-12 5.36-12 12v0c0 6.616 5.376 12 12 12h242.408c6.616 0 12-5.384 12-12v0c0-6.64-5.384-12-12-12zM467 261.88h92.88v-105.368h-92.88v105.368zM771.92 340c-6.016-0.016-11.768 2.416-15.96 6.728l-162.96 169.312-109.56-115.2c-7.952-8.408-21.040-9.232-30-1.92l-82.8 66.84-87.72-116.528c-4.168-5.552-10.704-8.832-17.64-8.872h-150.48v-68.28c0.064-16.28 13.248-29.464 29.52-29.512h738.368c16.264 0.056 29.456 13.232 29.504 29.512v67.92h-140.272zM254.12 384.64l94.92 126c7.4 9.784 21.32 11.72 31.096 4.32 0.168-0.12 0.312-0.24 0.464-0.368l84.728-68.392 111.48 117.24c4.168 4.352 9.928 6.832 15.96 6.84v0c6 0.008 11.768-2.408 15.96-6.72l172.544-178.8h130.92v271.32c-0.056 16.28-13.24 29.456-29.504 29.512h-738.368c-16.272-0.064-29.464-13.232-29.52-29.512v-271.44h139.32z" />
<glyph unicode="&#xe93d;" glyph-name="persistent-disk" d="M632 400v-132h-348v-108h456v240zM392 496v132h348v108h-456v-240zM452 568v-132h-168v-108h288v132h168v108z" />
<glyph unicode="&#xe93e;" glyph-name="prediction-api" d="M267.8 275.808l-44.16 26.384 193.44 322.568 185.76-313.568-44.28-26.272-141.728 239.28zM656.128 301.36c0-42.747-34.653-77.4-77.4-77.4s-77.4 34.653-77.4 77.4c0 42.747 34.653 77.4 77.4 77.4s77.4-34.653 77.4-77.4zM325.040 292.36c0-42.747-34.653-77.4-77.4-77.4s-77.4 34.653-77.4 77.4c0 42.747 34.653 77.4 77.4 77.4s77.4-34.653 77.4-77.4zM673.768 391.36l-44.416 26.16 34.336 58.32 44.392-26.16-34.312-58.32zM736.16 497.44l-44.16 26.16 34.312 58.328 44.168-25.92-34.32-58.568zM798.56 604l-44.408 26.168 33.848 57.832 44.408-26.168-33.848-57.832zM878.728 633.64l1.312 159.12-138.48-78.352z" />
<glyph unicode="&#xe93f;" glyph-name="security-key-enforcement" d="M399.2 325.232c0 34.808 0 67.688 0 100.568 0 3.96-7.92 8.88-13.088 11.392-73.208 34.008-104.992 120.928-70.976 194.136 34 73.208 120.912 104.992 194.128 70.984 35.152-16.328 62.384-45.944 75.696-82.352 26.552-70.6-5.632-149.76-73.92-181.808-9.968-3.496-16.088-13.528-14.632-24 0-72 0-142.808 0-214.312v-18.96h-97.208v46.808h-96.608v97.544h96.608zM496.64 569.2c0.392 26.896-21.096 49.032-48 49.432-26.896 0.4-49.032-21.088-49.432-47.992s21.088-49.040 47.992-49.44c0.128 0 0.232 0 0.36 0v0c26.624 0.056 48.32 21.376 48.84 48h0.24zM713.232 619.96c-25.168 68.904-97.664 108.336-169.192 92.040 78.504-17.624 127.848-95.552 110.224-174.064-9.832-43.784-39.296-80.592-79.856-99.784-9.976-3.496-16.096-13.528-14.64-24 0-72 0-142.808 0-214.312v-18.96h64.92v18.712c0 72 0 142.816 0 214.328-1.456 10.472 4.664 20.504 14.624 24 68.416 32.048 100.616 111.36 73.92 182.040z" />
<glyph unicode="&#xe940;" glyph-name="stackdriver" d="M872 447.76l-166.192 289.072-166.32-289.072 166.32-289.072zM152 423.768l165.592-288h332.176l-165.6 288zM482 471.76l168.352 288h-332.152l-166.2-288z" />
<glyph unicode="&#xe941;" glyph-name="trace" d="M152 520h720v-144h-720v144zM380 232h492v-144h-492v144zM152 808h228v-144h-228v144z" />
<glyph unicode="&#xe942;" glyph-name="virtual-private-cloud" d="M308 562h60v-234h-60v234zM656 590.44h60v-261.84h-60v261.84zM396.56 652h231v-60h-231v60zM396.56 304h231v-60h-231v60zM236 736h180c6.624 0 12-5.376 12-12v-180c0-6.624-5.376-12-12-12h-180c-6.624 0-12 5.376-12 12v180c0 6.624 5.376 12 12 12zM608 736h180c6.632 0 12-5.376 12-12v-180c0-6.624-5.368-12-12-12h-180c-6.632 0-12 5.376-12 12v180c0 6.624 5.368 12 12 12zM236 364h180c6.624 0 12-5.368 12-12v-180c0-6.632-5.376-12-12-12h-180c-6.624 0-12 5.368-12 12v180c0 6.632 5.376 12 12 12zM608 364h180c6.632 0 12-5.368 12-12v-180c0-6.632-5.368-12-12-12h-180c-6.632 0-12 5.368-12 12v180c0 6.632 5.368 12 12 12z" />
</font>
</defs>
</svg>
